<svg viewBox="0 0 330 200" xmlns="http://www.w3.org/2000/svg"><g><g><g><g><line x1="10" y1="0" x2="10" y2="177" fill="rgb(0, 0, 0)" stroke="rgb(204, 204, 204)" stroke-width="1px"></line></g></g><g transform="translate(10, 0)" clip-path="url(#clip_0)"><clipPath id="clip_0"><rect width="320" height="177"></rect></clipPath><g><g><g><line x1="0" y1="0" x2="0" y2="177" fill="rgb(0, 0, 0)" stroke="rgb(60, 60, 60)" stroke-width="1px" opacity="0.25"></line><line x1="35.55555555555556" y1="0" x2="35.55555555555556" y2="177" fill="rgb(0, 0, 0)" stroke="rgb(60, 60, 60)" stroke-width="1px" opacity="0.25"></line><line x1="71.11111111111111" y1="0" x2="71.11111111111111" y2="177" fill="rgb(0, 0, 0)" stroke="rgb(60, 60, 60)" stroke-width="1px" opacity="0.25"></line><line x1="106.66666666666666" y1="0" x2="106.66666666666666" y2="177" fill="rgb(0, 0, 0)" stroke="rgb(60, 60, 60)" stroke-width="1px" opacity="0.25"></line><line x1="142.22222222222223" y1="0" x2="142.22222222222223" y2="177" fill="rgb(0, 0, 0)" stroke="rgb(60, 60, 60)" stroke-width="1px" opacity="0.25"></line><line x1="177.77777777777777" y1="0" x2="177.77777777777777" y2="177" fill="rgb(0, 0, 0)" stroke="rgb(60, 60, 60)" stroke-width="1px" opacity="0.25"></line><line x1="213.33333333333331" y1="0" x2="213.33333333333331" y2="177" fill="rgb(0, 0, 0)" stroke="rgb(60, 60, 60)" stroke-width="1px" opacity="0.25"></line><line x1="248.88888888888889" y1="0" x2="248.88888888888889" y2="177" fill="rgb(0, 0, 0)" stroke="rgb(60, 60, 60)" stroke-width="1px" opacity="0.25"></line><line x1="284.44444444444446" y1="0" x2="284.44444444444446" y2="177" fill="rgb(0, 0, 0)" stroke="rgb(60, 60, 60)" stroke-width="1px" opacity="0.25"></line><line x1="320" y1="0" x2="320" y2="177" fill="rgb(0, 0, 0)" stroke="rgb(60, 60, 60)" stroke-width="1px" opacity="0.25"></line></g></g></g><g><g><line x1="35.55555555555556" y1="0" x2="35.55555555555556" y2="177" fill="rgb(0, 0, 0)" stroke="rgb(153, 153, 153)" stroke-width="1.5px"></line></g></g><g><g><g><g><g><path stroke="rgb(0, 119, 187)" stroke-width="2px" d="M35.55555555555556,170.91832450552428L39.11111111111111,151.71428571428615L42.666666666666664,145.60654009287606L46.222222222222214,151.47551221515732L49.77777777777778,154.24687189529408L53.33333333333333,156.4191154932428L56.88888888888889,159.36967683306477L60.44444444444444,145.26561157076407L64,136.99262849453828L67.55555555555556,116.22897249714876L71.11111111111111,113.12398005503036L74.66666666666667,111.47996317976163L78.22222222222221,111.91916406909054L81.77777777777777,101.39540547895517L85.33333333333333,97.54159189198143L88.88888888888889,93.40989703038801L92.44444444444443,83.2743262252095L96,75.40732198710904L99.55555555555556,72.30869171735111L103.11111111111111,66.85254588829831L106.66666666666666,78.99860798168156L110.22222222222223,78.47111657288343L113.77777777777779,81.97716092523241L117.33333333333333,66.8301153341344L120.88888888888889,68.16174116897268L124.44444444444444,75.97390028249629L128,73.6448828598872L131.55555555555554,63.45234498469058L135.11111111111111,80.56551401433596L138.66666666666669,59.40392216339771L142.22222222222223,60.71374919969588L145.77777777777777,70.08223095852377L149.33333333333334,66.51700569370475L152.88888888888889,46.0874426554918L156.44444444444443,50.321185798311475L160,42.16225778050017L163.55555555555554,47.16765680428085L167.11111111111111,60.522381957732975L170.66666666666666,46.084518379214416L174.2222222222222,39.440581715319496L177.77777777777777,43.55375446646747L181.33333333333331,49.39472547109902L184.88888888888886,53.901979157212196L188.44444444444446,59.593989333666315L192,48.103178559218094L195.55555555555557,37.87672828650233L199.11111111111111,25.67260694779526L202.66666666666666,17.010229568012136L206.22222222222223,31.220815646499403L209.77777777777777,43.948502099019606L213.33333333333331,54.201915156292245L216.8888888888889,54.399635599775465L220.44444444444446,49.55652000551089L224,43.88356750695684L227.55555555555557,45.43532132104107L231.11111111111111,41.41987652030471L234.66666666666666,70.82261940981887L238.22222222222223,46.26807278169528L241.77777777777777,34.2207524182015L245.33333333333334,33.90561471149445L248.88888888888889,41.80925545297629L252.44444444444443,44.38250355333787L256,40.589136231287995L259.55555555555554,41.47880563061679L263.1111111111111,32.93989032599643L266.6666666666667,37.66947176162705L270.22222222222223,36.763441139299545L273.77777777777777,39.37319654264792L277.33333333333337,37.788937271208056L280.8888888888889,44.13987105775021L284.44444444444446,37.88199869739313L288,25.285714285713368L291.55555555555554,21.87169702817104L295.11111111111114,26.29228431931648L298.6666666666667,22.28178942233376L302.22222222222223,28.114374726076193L305.77777777777777,36.14659277986587L309.3333333333333,21.895242019571157" style="fill: none;" fill="none"></path></g><g><path stroke="rgb(255, 112, 67)" stroke-width="2px" d="M35.55555555555556,170.91832450552428L39.11111111111111,151.71428571428615L42.666666666666664,145.60654009287606L46.222222222222214,151.47551221515732L49.77777777777778,154.24687189529408L53.33333333333333,156.4191154932428L56.88888888888889,159.36967683306477L60.44444444444444,145.26561157076407L64,136.99262849453828L67.55555555555556,116.22897249714876L71.11111111111111,113.12398005503036L74.66666666666667,111.47996317976163L78.22222222222221,111.91916406909054L81.77777777777777,101.39540547895517L85.33333333333333,97.54159189198143L88.88888888888889,93.40989703038801L92.44444444444443,83.2743262252095L96,75.40732198710904L99.55555555555556,72.30869171735111L103.11111111111111,66.85254588829831L106.66666666666666,78.99860798168156L110.22222222222223,78.47111657288343L113.77777777777779,81.97716092523241L117.33333333333333,66.8301153341344L120.88888888888889,68.16174116897268L124.44444444444444,75.97390028249629L128,73.6448828598872L131.55555555555554,63.45234498469058L135.11111111111111,80.56551401433596L138.66666666666669,59.40392216339771L142.22222222222223,60.71374919969588L145.77777777777777,70.08223095852377L149.33333333333334,66.51700569370475L152.88888888888889,46.0874426554918L156.44444444444443,50.321185798311475L160,42.16225778050017L163.55555555555554,47.16765680428085L167.11111111111111,60.522381957732975L170.66666666666666,46.084518379214416L174.2222222222222,39.440581715319496L177.77777777777777,43.55375446646747L181.33333333333331,49.39472547109902L184.88888888888886,53.901979157212196L188.44444444444446,59.593989333666315L192,48.103178559218094L195.55555555555557,37.87672828650233L199.11111111111111,25.67260694779526L202.66666666666666,17.010229568012136L206.22222222222223,31.220815646499403L209.77777777777777,43.948502099019606L213.33333333333331,54.201915156292245L216.8888888888889,54.399635599775465L220.44444444444446,49.55652000551089L224,43.88356750695684L227.55555555555557,45.43532132104107L231.11111111111111,41.41987652030471L234.66666666666666,70.82261940981887L238.22222222222223,46.26807278169528L241.77777777777777,34.2207524182015L245.33333333333334,33.90561471149445L248.88888888888889,41.80925545297629L252.44444444444443,44.38250355333787L256,40.589136231287995L259.55555555555554,41.47880563061679L263.1111111111111,32.93989032599643L266.6666666666667,37.66947176162705L270.22222222222223,36.763441139299545L273.77777777777777,39.37319654264792L277.33333333333337,37.788937271208056L280.8888888888889,44.13987105775021L284.44444444444446,37.88199869739313L288,25.285714285713368L291.55555555555554,21.87169702817104L295.11111111111114,26.29228431931648L298.6666666666667,22.28178942233376L302.22222222222223,28.114374726076193L305.77777777777777,36.14659277986587L309.3333333333333,21.895242019571157" style="fill: none;" fill="none"></path></g></g></g></g><g opacity="0.2"><g><g><g><path stroke="rgb(0, 119, 187)" stroke-width="2px" d="M35.55555555555556,170.91832450552428L39.11111111111111,140.2683932820068L42.666666666666664,139.75833077358743L46.222222222222214,158.39664827222063L49.77777777777778,157.87019458923086L53.33333333333333,159.4274979732618L56.88888888888889,163.59561711276396L60.44444444444444,124.85556551164467L64,124.84565836004231L67.55555555555556,85.73925151382515L71.11111111111111,108.50242653684779L74.66666666666667,109.02507399809869L78.22222222222221,112.5766881503104L81.77777777777777,85.71997444567396L85.33333333333333,91.77747217722678L88.88888888888889,87.22914758784425L92.44444444444443,68.15851587749815L96,63.65904595177405L99.55555555555556,67.66903377633065L103.11111111111111,58.693026164178136L106.66666666666666,97.33820098097853L110.22222222222223,77.68012367055728L113.77777777777779,87.24620375901091L117.33333333333333,44.29521535661843L120.88888888888889,70.16061775988948L124.44444444444444,87.74210634032868L128,70.15578063740392L131.55555555555554,48.247784179783196L135.11111111111111,106.4764975309027L138.66666666666669,28.02234741761754L142.22222222222223,62.67988961843629L145.77777777777777,84.20692457120506L149.33333333333334,61.17951344562316L152.88888888888889,15.779511648287183L156.44444444444443,56.686455127442784L160,29.977901547907464L163.55555555555554,54.6962481521562L167.11111111111111,80.70106223578973L170.66666666666666,24.59632029868635L174.2222222222222,29.510539546325475L177.77777777777777,49.737344606296276L181.33333333333331,58.18410144031179L184.88888888888886,60.67947175938531L188.44444444444446,68.15851587749815L192,30.973937203442716L195.55555555555557,22.621843152946667L199.11111111111111,7.48704373717581L202.66666666666666,4.077555716252448L206.22222222222223,52.70276201606218L209.77777777777777,63.17313295729848L213.33333333333331,69.66829120149929L216.8888888888889,54.6962481521562L220.44444444444446,42.31092293970289L224,35.40029980482194L227.55555555555557,47.764917662158666L231.11111111111111,35.40982890740932L234.66666666666666,115.64406785195996L238.22222222222223,9.921088282059003L241.77777777777777,16.26732171179674L245.33333333333334,33.4329891326382L248.88888888888889,53.71589812061369L252.44444444444443,48.247784179783196L256,34.91079529052868L259.55555555555554,42.81395559843156L263.1111111111111,20.190690413323466L266.6666666666667,44.782137613124036L270.22222222222223,35.40506435117851L273.77777777777777,43.29339279293211L277.33333333333337,35.414593473515L280.8888888888889,53.69928901234137L284.44444444444446,28.527013330636237L288,6.5197538874468535L291.55555555555554,16.760158283846124L295.11111111111114,32.93914382772334L298.6666666666667,16.27913437700832L302.22222222222223,36.891091906384645L305.77777777777777,48.247784179783196L309.3333333333333,0.6825028345635928" style="fill: none;" fill="none"></path></g><g><path stroke="rgb(255, 112, 67)" stroke-width="2px" d="M35.55555555555556,170.91832450552428L39.11111111111111,140.2683932820068L42.666666666666664,139.75833077358743L46.222222222222214,158.39664827222063L49.77777777777778,157.87019458923086L53.33333333333333,159.4274979732618L56.88888888888889,163.59561711276396L60.44444444444444,124.85556551164467L64,124.84565836004231L67.55555555555556,85.73925151382515L71.11111111111111,108.50242653684779L74.66666666666667,109.02507399809869L78.22222222222221,112.5766881503104L81.77777777777777,85.71997444567396L85.33333333333333,91.77747217722678L88.88888888888889,87.22914758784425L92.44444444444443,68.15851587749815L96,63.65904595177405L99.55555555555556,67.66903377633065L103.11111111111111,58.693026164178136L106.66666666666666,97.33820098097853L110.22222222222223,77.68012367055728L113.77777777777779,87.24620375901091L117.33333333333333,44.29521535661843L120.88888888888889,70.16061775988948L124.44444444444444,87.74210634032868L128,70.15578063740392L131.55555555555554,48.247784179783196L135.11111111111111,106.4764975309027L138.66666666666669,28.02234741761754L142.22222222222223,62.67988961843629L145.77777777777777,84.20692457120506L149.33333333333334,61.17951344562316L152.88888888888889,15.779511648287183L156.44444444444443,56.686455127442784L160,29.977901547907464L163.55555555555554,54.6962481521562L167.11111111111111,80.70106223578973L170.66666666666666,24.59632029868635L174.2222222222222,29.510539546325475L177.77777777777777,49.737344606296276L181.33333333333331,58.18410144031179L184.88888888888886,60.67947175938531L188.44444444444446,68.15851587749815L192,30.973937203442716L195.55555555555557,22.621843152946667L199.11111111111111,7.48704373717581L202.66666666666666,4.077555716252448L206.22222222222223,52.70276201606218L209.77777777777777,63.17313295729848L213.33333333333331,69.66829120149929L216.8888888888889,54.6962481521562L220.44444444444446,42.31092293970289L224,35.40029980482194L227.55555555555557,47.764917662158666L231.11111111111111,35.40982890740932L234.66666666666666,115.64406785195996L238.22222222222223,9.921088282059003L241.77777777777777,16.26732171179674L245.33333333333334,33.4329891326382L248.88888888888889,53.71589812061369L252.44444444444443,48.247784179783196L256,34.91079529052868L259.55555555555554,42.81395559843156L263.1111111111111,20.190690413323466L266.6666666666667,44.782137613124036L270.22222222222223,35.40506435117851L273.77777777777777,43.29339279293211L277.33333333333337,35.414593473515L280.8888888888889,53.69928901234137L284.44444444444446,28.527013330636237L288,6.5197538874468535L291.55555555555554,16.760158283846124L295.11111111111114,32.93914382772334L298.6666666666667,16.27913437700832L302.22222222222223,36.891091906384645L305.77777777777777,48.247784179783196L309.3333333333333,0.6825028345635928" style="fill: none;" fill="none"></path></g></g></g></g></g></g><g transform="translate(10, 177)" clip-path="url(#clip_1)"><clipPath id="clip_1"><rect width="320" height="23"></rect></clipPath><g><g><line x1="0" y1="0" x2="0" y2="5" style="visibility: inherit;" fill="rgb(0, 0, 0)" stroke="rgb(204, 204, 204)" stroke-width="1px"></line><line x1="35.55555555555556" y1="0" x2="35.55555555555556" y2="5" style="visibility: inherit;" fill="rgb(0, 0, 0)" stroke="rgb(204, 204, 204)" stroke-width="1px"></line><line x1="71.11111111111111" y1="0" x2="71.11111111111111" y2="5" style="visibility: inherit;" fill="rgb(0, 0, 0)" stroke="rgb(204, 204, 204)" stroke-width="1px"></line><line x1="106.66666666666666" y1="0" x2="106.66666666666666" y2="5" style="visibility: inherit;" fill="rgb(0, 0, 0)" stroke="rgb(204, 204, 204)" stroke-width="1px"></line><line x1="142.22222222222223" y1="0" x2="142.22222222222223" y2="5" style="visibility: inherit;" fill="rgb(0, 0, 0)" stroke="rgb(204, 204, 204)" stroke-width="1px"></line><line x1="177.77777777777777" y1="0" x2="177.77777777777777" y2="5" style="visibility: inherit;" fill="rgb(0, 0, 0)" stroke="rgb(204, 204, 204)" stroke-width="1px"></line><line x1="213.33333333333331" y1="0" x2="213.33333333333331" y2="5" style="visibility: inherit;" fill="rgb(0, 0, 0)" stroke="rgb(204, 204, 204)" stroke-width="1px"></line><line x1="248.88888888888889" y1="0" x2="248.88888888888889" y2="5" style="visibility: inherit;" fill="rgb(0, 0, 0)" stroke="rgb(204, 204, 204)" stroke-width="1px"></line><line x1="284.44444444444446" y1="0" x2="284.44444444444446" y2="5" style="visibility: inherit;" fill="rgb(0, 0, 0)" stroke="rgb(204, 204, 204)" stroke-width="1px"></line><line x1="320" y1="0" x2="320" y2="5" style="visibility: inherit;" fill="rgb(0, 0, 0)" stroke="rgb(204, 204, 204)" stroke-width="1px"></line></g><g transform="translate(0, 8)"><text x="0" y="0" dx="0em" dy="0.95em" style="text-anchor: middle; visibility: hidden; font-family: &quot;Helvetica Neue&quot;, sans-serif; font-size: 12px; font-weight: 200;" fill="rgb(50, 49, 63)" stroke="none" stroke-width="1px">-5k</text><text x="35.55555555555556" y="0" dx="0em" dy="0.95em" style="text-anchor: middle; visibility: inherit; font-family: &quot;Helvetica Neue&quot;, sans-serif; font-size: 12px; font-weight: 200;" fill="rgb(50, 49, 63)" stroke="none" stroke-width="1px">0</text><text x="71.11111111111111" y="0" dx="0em" dy="0.95em" style="text-anchor: middle; visibility: inherit; font-family: &quot;Helvetica Neue&quot;, sans-serif; font-size: 12px; font-weight: 200;" fill="rgb(50, 49, 63)" stroke="none" stroke-width="1px">5k</text><text x="106.66666666666666" y="0" dx="0em" dy="0.95em" style="text-anchor: middle; visibility: inherit; font-family: &quot;Helvetica Neue&quot;, sans-serif; font-size: 12px; font-weight: 200;" fill="rgb(50, 49, 63)" stroke="none" stroke-width="1px">10k</text><text x="142.22222222222223" y="0" dx="0em" dy="0.95em" style="text-anchor: middle; visibility: inherit; font-family: &quot;Helvetica Neue&quot;, sans-serif; font-size: 12px; font-weight: 200;" fill="rgb(50, 49, 63)" stroke="none" stroke-width="1px">15k</text><text x="177.77777777777777" y="0" dx="0em" dy="0.95em" style="text-anchor: middle; visibility: inherit; font-family: &quot;Helvetica Neue&quot;, sans-serif; font-size: 12px; font-weight: 200;" fill="rgb(50, 49, 63)" stroke="none" stroke-width="1px">20k</text><text x="213.33333333333331" y="0" dx="0em" dy="0.95em" style="text-anchor: middle; visibility: inherit; font-family: &quot;Helvetica Neue&quot;, sans-serif; font-size: 12px; font-weight: 200;" fill="rgb(50, 49, 63)" stroke="none" stroke-width="1px">25k</text><text x="248.88888888888889" y="0" dx="0em" dy="0.95em" style="text-anchor: middle; visibility: inherit; font-family: &quot;Helvetica Neue&quot;, sans-serif; font-size: 12px; font-weight: 200;" fill="rgb(50, 49, 63)" stroke="none" stroke-width="1px">30k</text><text x="284.44444444444446" y="0" dx="0em" dy="0.95em" style="text-anchor: middle; visibility: inherit; font-family: &quot;Helvetica Neue&quot;, sans-serif; font-size: 12px; font-weight: 200;" fill="rgb(50, 49, 63)" stroke="none" stroke-width="1px">35k</text><text x="320" y="0" dx="0em" dy="0.95em" style="text-anchor: middle; visibility: hidden; font-family: &quot;Helvetica Neue&quot;, sans-serif; font-size: 12px; font-weight: 200;" fill="rgb(50, 49, 63)" stroke="none" stroke-width="1px">40k</text></g><line x1="0" y1="0" x2="320" y2="0" fill="rgb(0, 0, 0)" stroke="rgb(204, 204, 204)" stroke-width="1px"></line></g></g></g></g></svg>