<svg viewBox="0 0 330 200" xmlns="http://www.w3.org/2000/svg"><g><g><g><g><g><line x1="29.4375" y1="177" x2="24.4375" y2="177" style="visibility: inherit;" fill="rgb(0, 0, 0)" stroke="rgb(204, 204, 204)" stroke-width="1px"></line><line x1="29.4375" y1="157.33333333333334" x2="24.4375" y2="157.33333333333334" style="visibility: inherit;" fill="rgb(0, 0, 0)" stroke="rgb(204, 204, 204)" stroke-width="1px"></line><line x1="29.4375" y1="137.66666666666669" x2="24.4375" y2="137.66666666666669" style="visibility: inherit;" fill="rgb(0, 0, 0)" stroke="rgb(204, 204, 204)" stroke-width="1px"></line><line x1="29.4375" y1="118" x2="24.4375" y2="118" style="visibility: inherit;" fill="rgb(0, 0, 0)" stroke="rgb(204, 204, 204)" stroke-width="1px"></line><line x1="29.4375" y1="98.33333333333334" x2="24.4375" y2="98.33333333333334" style="visibility: inherit;" fill="rgb(0, 0, 0)" stroke="rgb(204, 204, 204)" stroke-width="1px"></line><line x1="29.4375" y1="78.66666666666666" x2="24.4375" y2="78.66666666666666" style="visibility: inherit;" fill="rgb(0, 0, 0)" stroke="rgb(204, 204, 204)" stroke-width="1px"></line><line x1="29.4375" y1="59" x2="24.4375" y2="59" style="visibility: inherit;" fill="rgb(0, 0, 0)" stroke="rgb(204, 204, 204)" stroke-width="1px"></line><line x1="29.4375" y1="39.33333333333334" x2="24.4375" y2="39.33333333333334" style="visibility: inherit;" fill="rgb(0, 0, 0)" stroke="rgb(204, 204, 204)" stroke-width="1px"></line><line x1="29.4375" y1="19.666666666666686" x2="24.4375" y2="19.666666666666686" style="visibility: inherit;" fill="rgb(0, 0, 0)" stroke="rgb(204, 204, 204)" stroke-width="1px"></line><line x1="29.4375" y1="0" x2="24.4375" y2="0" style="visibility: inherit;" fill="rgb(0, 0, 0)" stroke="rgb(204, 204, 204)" stroke-width="1px"></line></g><g transform="translate(19.4375, 0)"><text x="0" y="177" dx="0em" dy="0.3em" style="text-anchor: end; visibility: hidden; font-family: &quot;Helvetica Neue&quot;, sans-serif; font-size: 12px; font-weight: 200;" fill="rgb(50, 49, 63)" stroke="none" stroke-width="1px">73</text><text x="0" y="157.33333333333334" dx="0em" dy="0.3em" style="text-anchor: end; visibility: inherit; font-family: &quot;Helvetica Neue&quot;, sans-serif; font-size: 12px; font-weight: 200;" fill="rgb(50, 49, 63)" stroke="none" stroke-width="1px">74</text><text x="0" y="137.66666666666669" dx="0em" dy="0.3em" style="text-anchor: end; visibility: hidden; font-family: &quot;Helvetica Neue&quot;, sans-serif; font-size: 12px; font-weight: 200;" fill="rgb(50, 49, 63)" stroke="none" stroke-width="1px">75</text><text x="0" y="118" dx="0em" dy="0.3em" style="text-anchor: end; visibility: inherit; font-family: &quot;Helvetica Neue&quot;, sans-serif; font-size: 12px; font-weight: 200;" fill="rgb(50, 49, 63)" stroke="none" stroke-width="1px">76</text><text x="0" y="98.33333333333334" dx="0em" dy="0.3em" style="text-anchor: end; visibility: hidden; font-family: &quot;Helvetica Neue&quot;, sans-serif; font-size: 12px; font-weight: 200;" fill="rgb(50, 49, 63)" stroke="none" stroke-width="1px">77</text><text x="0" y="78.66666666666666" dx="0em" dy="0.3em" style="text-anchor: end; visibility: inherit; font-family: &quot;Helvetica Neue&quot;, sans-serif; font-size: 12px; font-weight: 200;" fill="rgb(50, 49, 63)" stroke="none" stroke-width="1px">78</text><text x="0" y="59" dx="0em" dy="0.3em" style="text-anchor: end; visibility: hidden; font-family: &quot;Helvetica Neue&quot;, sans-serif; font-size: 12px; font-weight: 200;" fill="rgb(50, 49, 63)" stroke="none" stroke-width="1px">79</text><text x="0" y="39.33333333333334" dx="0em" dy="0.3em" style="text-anchor: end; visibility: inherit; font-family: &quot;Helvetica Neue&quot;, sans-serif; font-size: 12px; font-weight: 200;" fill="rgb(50, 49, 63)" stroke="none" stroke-width="1px">80</text><text x="0" y="19.666666666666686" dx="0em" dy="0.3em" style="text-anchor: end; visibility: hidden; font-family: &quot;Helvetica Neue&quot;, sans-serif; font-size: 12px; font-weight: 200;" fill="rgb(50, 49, 63)" stroke="none" stroke-width="1px">81</text><text x="0" y="0" dx="0em" dy="0.3em" style="text-anchor: end; visibility: hidden; font-family: &quot;Helvetica Neue&quot;, sans-serif; font-size: 12px; font-weight: 200;" fill="rgb(50, 49, 63)" stroke="none" stroke-width="1px">82</text></g><line x1="29.4375" y1="0" x2="29.4375" y2="177" fill="rgb(0, 0, 0)" stroke="rgb(204, 204, 204)" stroke-width="1px"></line></g></g><g transform="translate(29, 0)" clip-path="url(#clip_0)"><clipPath id="clip_0"><rect width="300" height="177"></rect></clipPath><g><g><g><line x1="0" y1="0" x2="0" y2="177" fill="rgb(0, 0, 0)" stroke="rgb(60, 60, 60)" stroke-width="1px" opacity="0.25"></line><line x1="33.39583333333333" y1="0" x2="33.39583333333333" y2="177" fill="rgb(0, 0, 0)" stroke="rgb(60, 60, 60)" stroke-width="1px" opacity="0.25"></line><line x1="66.79166666666666" y1="0" x2="66.79166666666666" y2="177" fill="rgb(0, 0, 0)" stroke="rgb(60, 60, 60)" stroke-width="1px" opacity="0.25"></line><line x1="100.1875" y1="0" x2="100.1875" y2="177" fill="rgb(0, 0, 0)" stroke="rgb(60, 60, 60)" stroke-width="1px" opacity="0.25"></line><line x1="133.58333333333331" y1="0" x2="133.58333333333331" y2="177" fill="rgb(0, 0, 0)" stroke="rgb(60, 60, 60)" stroke-width="1px" opacity="0.25"></line><line x1="166.97916666666669" y1="0" x2="166.97916666666669" y2="177" fill="rgb(0, 0, 0)" stroke="rgb(60, 60, 60)" stroke-width="1px" opacity="0.25"></line><line x1="200.375" y1="0" x2="200.375" y2="177" fill="rgb(0, 0, 0)" stroke="rgb(60, 60, 60)" stroke-width="1px" opacity="0.25"></line><line x1="233.77083333333334" y1="0" x2="233.77083333333334" y2="177" fill="rgb(0, 0, 0)" stroke="rgb(60, 60, 60)" stroke-width="1px" opacity="0.25"></line><line x1="267.16666666666663" y1="0" x2="267.16666666666663" y2="177" fill="rgb(0, 0, 0)" stroke="rgb(60, 60, 60)" stroke-width="1px" opacity="0.25"></line><line x1="300.5625" y1="0" x2="300.5625" y2="177" fill="rgb(0, 0, 0)" stroke="rgb(60, 60, 60)" stroke-width="1px" opacity="0.25"></line></g><g><line x1="0" y1="177" x2="300.5625" y2="177" fill="rgb(0, 0, 0)" stroke="rgb(60, 60, 60)" stroke-width="1px" opacity="0.25"></line><line x1="0" y1="157.33333333333334" x2="300.5625" y2="157.33333333333334" fill="rgb(0, 0, 0)" stroke="rgb(60, 60, 60)" stroke-width="1px" opacity="0.25"></line><line x1="0" y1="137.66666666666669" x2="300.5625" y2="137.66666666666669" fill="rgb(0, 0, 0)" stroke="rgb(60, 60, 60)" stroke-width="1px" opacity="0.25"></line><line x1="0" y1="118" x2="300.5625" y2="118" fill="rgb(0, 0, 0)" stroke="rgb(60, 60, 60)" stroke-width="1px" opacity="0.25"></line><line x1="0" y1="98.33333333333334" x2="300.5625" y2="98.33333333333334" fill="rgb(0, 0, 0)" stroke="rgb(60, 60, 60)" stroke-width="1px" opacity="0.25"></line><line x1="0" y1="78.66666666666666" x2="300.5625" y2="78.66666666666666" fill="rgb(0, 0, 0)" stroke="rgb(60, 60, 60)" stroke-width="1px" opacity="0.25"></line><line x1="0" y1="59" x2="300.5625" y2="59" fill="rgb(0, 0, 0)" stroke="rgb(60, 60, 60)" stroke-width="1px" opacity="0.25"></line><line x1="0" y1="39.33333333333334" x2="300.5625" y2="39.33333333333334" fill="rgb(0, 0, 0)" stroke="rgb(60, 60, 60)" stroke-width="1px" opacity="0.25"></line><line x1="0" y1="19.666666666666686" x2="300.5625" y2="19.666666666666686" fill="rgb(0, 0, 0)" stroke="rgb(60, 60, 60)" stroke-width="1px" opacity="0.25"></line><line x1="0" y1="0" x2="300.5625" y2="0" fill="rgb(0, 0, 0)" stroke="rgb(60, 60, 60)" stroke-width="1px" opacity="0.25"></line></g></g></g><g><g><line x1="0" y1="1612.6666666666665" x2="300.5625" y2="1612.6666666666665" fill="rgb(0, 0, 0)" stroke="rgb(153, 153, 153)" stroke-width="1.5px"></line></g></g><g><g><line x1="33.39583333333333" y1="0" x2="33.39583333333333" y2="177" fill="rgb(0, 0, 0)" stroke="rgb(153, 153, 153)" stroke-width="1.5px"></line></g></g><g><g><g><g><g><path stroke="rgb(0, 119, 187)" stroke-width="2px" d="M33.39583333333333,132.82862345377603L36.735416666666666,143.30118497212726L40.075,142.70504413007885L43.414583333333326,142.7846751961056L46.75416666666667,151.06213494856118L50.09375,140.9070629993309L53.43333333333334,153.21656766235435L56.77291666666667,152.94858299811202L60.112500000000004,139.09487549822867L63.452083333333334,118.13160989512812L66.79166666666666,99.20970952252863L70.13125,102.97949171042185L73.47083333333333,99.41786996122265L76.81041666666665,92.81281995097648L80.15,92.42771068640398L83.48958333333334,91.4535297259624L86.82916666666665,92.51072451771462L90.16875,84.05159102294718L93.50833333333334,76.14232263038133L96.84791666666668,82.87351301291963L100.1875,90.48933530047398L103.52708333333334,89.99110337084294L106.86666666666667,67.64243678158655L110.20625,68.38695892360478L113.54583333333333,79.11542627379882L116.88541666666667,82.27424365589997L120.22500000000001,84.47136098295827L123.56458333333333,70.28795619525793L126.90416666666667,69.2283641470538L130.24375,70.23247871184353L133.58333333333331,77.83699698417506L136.92291666666665,85.67938590775324L140.2625,83.52939352694641L143.60208333333335,79.41165455287734L146.94166666666666,64.72268624548879L150.28125,51.139202427500024L153.6208333333333,52.08158461337359L156.96041666666667,69.48167584891009L160.3,58.76181839236412L163.63958333333332,52.77685726276958L166.97916666666669,42.03792831389208L170.31875,43.931838003244195L173.6583333333333,52.81757550145214L176.99791666666667,49.065128226653286L180.3375,47.856350902337795L183.67708333333334,49.51187470980058L187.01666666666668,32.629216500053246L190.35625,40.376974480284076L193.69583333333335,48.00281737870287L197.03541666666666,57.05301794194315L200.375,49.51891098485585L203.71458333333334,66.30492264076716L207.05416666666667,46.42741566124866L210.39374999999998,61.0237233632357L213.73333333333335,71.27121237081259L217.07291666666666,73.99268347717602L220.4125,88.28874363123062L223.75208333333333,57.97645866245814L227.09166666666667,47.835988112513235L230.43125,40.85773910774202L233.77083333333334,39.20528575793938L237.11041666666665,48.197311876313364L240.45000000000002,44.94850899264995L243.78958333333333,40.02059872241284L247.12916666666666,47.491483175505266L250.46875,47.95203407034211L253.80833333333334,46.88888503367673L257.1479166666667,37.31084872040134L260.4875,48.40156965704551L263.82708333333335,50.28523907612818L267.16666666666663,56.93066594730445L270.50625,52.57567353485386L273.8458333333333,45.49014390769611L277.1854166666667,41.38971114116754L280.525,40.41771543795579L283.8645833333333,31.49581053718765L287.2041666666667,34.63298030017717L290.54375,21.913286308361506" style="fill: none;" fill="none"></path></g><g><path stroke="rgb(255, 112, 67)" stroke-width="2px" d="M33.39583333333333,132.82862345377603L36.735416666666666,143.30118497212726L40.075,142.70504413007885L43.414583333333326,142.7846751961056L46.75416666666667,151.06213494856118L50.09375,140.9070629993309L53.43333333333334,153.21656766235435L56.77291666666667,152.94858299811202L60.112500000000004,139.09487549822867L63.452083333333334,118.13160989512812L66.79166666666666,99.20970952252863L70.13125,102.97949171042185L73.47083333333333,99.41786996122265L76.81041666666665,92.81281995097648L80.15,92.42771068640398L83.48958333333334,91.4535297259624L86.82916666666665,92.51072451771462L90.16875,84.05159102294718L93.50833333333334,76.14232263038133L96.84791666666668,82.87351301291963L100.1875,90.48933530047398L103.52708333333334,89.99110337084294L106.86666666666667,67.64243678158655L110.20625,68.38695892360478L113.54583333333333,79.11542627379882L116.88541666666667,82.27424365589997L120.22500000000001,84.47136098295827L123.56458333333333,70.28795619525793L126.90416666666667,69.2283641470538L130.24375,70.23247871184353L133.58333333333331,77.83699698417506L136.92291666666665,85.67938590775324L140.2625,83.52939352694641L143.60208333333335,79.41165455287734L146.94166666666666,64.72268624548879L150.28125,51.139202427500024L153.6208333333333,52.08158461337359L156.96041666666667,69.48167584891009L160.3,58.76181839236412L163.63958333333332,52.77685726276958L166.97916666666669,42.03792831389208L170.31875,43.931838003244195L173.6583333333333,52.81757550145214L176.99791666666667,49.065128226653286L180.3375,47.856350902337795L183.67708333333334,49.51187470980058L187.01666666666668,32.629216500053246L190.35625,40.376974480284076L193.69583333333335,48.00281737870287L197.03541666666666,57.05301794194315L200.375,49.51891098485585L203.71458333333334,66.30492264076716L207.05416666666667,46.42741566124866L210.39374999999998,61.0237233632357L213.73333333333335,71.27121237081259L217.07291666666666,73.99268347717602L220.4125,88.28874363123062L223.75208333333333,57.97645866245814L227.09166666666667,47.835988112513235L230.43125,40.85773910774202L233.77083333333334,39.20528575793938L237.11041666666665,48.197311876313364L240.45000000000002,44.94850899264995L243.78958333333333,40.02059872241284L247.12916666666666,47.491483175505266L250.46875,47.95203407034211L253.80833333333334,46.88888503367673L257.1479166666667,37.31084872040134L260.4875,48.40156965704551L263.82708333333335,50.28523907612818L267.16666666666663,56.93066594730445L270.50625,52.57567353485386L273.8458333333333,45.49014390769611L277.1854166666667,41.38971114116754L280.525,40.41771543795579L283.8645833333333,31.49581053718765L287.2041666666667,34.63298030017717L290.54375,21.913286308361506" style="fill: none;" fill="none"></path></g></g></g></g><g opacity="0.2"><g><g><g><path stroke="rgb(0, 119, 187)" stroke-width="2px" d="M33.39583333333333,132.82862345377603L36.735416666666666,149.58472188313803L40.075,142.13274892171222L43.414583333333326,142.8783213297526L46.75416666666667,161.8691864013672L50.09375,126.85894266764322L53.43333333333334,170.8193562825521L56.77291666666667,152.5578587849935L60.112500000000004,118.66334788004556L63.452083333333334,87.00360361735027L66.79166666666666,70.99847920735678L70.13125,108.61365000406902L73.47083333333333,94.08706665039062L76.81041666666665,82.91818491617839L80.15,91.85049947102864L83.48958333333334,89.99294535319011L86.82916666666665,94.0960693359375L90.16875,71.36503855387369L93.50833333333334,64.27962493896484L96.84791666666668,92.96968332926433L100.1875,101.91265106201172L103.52708333333334,89.243771870931L106.86666666666667,34.119878133138L110.20625,69.5037333170573L113.54583333333333,95.20805104573567L116.88541666666667,87.01245625813802L120.22500000000001,87.76703135172525L123.56458333333333,49.01287078857422L126.90416666666667,67.63897705078125L130.24375,71.73865000406902L133.58333333333331,89.243771870931L136.92291666666665,97.44296773274739L140.2625,80.30440521240234L143.60208333333335,73.23504638671875L146.94166666666666,42.689234415690095L150.28125,30.76397705078125L153.6208333333333,53.49515787760416L156.96041666666667,95.5818125406901L160.3,42.682032267252595L163.63958333333332,43.799415588378906L166.97916666666669,25.929534912109375L170.31875,46.7727025349935L173.6583333333333,66.14618174235027L176.99791666666667,43.43645731608075L180.3375,46.043184916178376L183.67708333333334,51.99516042073567L187.01666666666668,7.305229187011719L190.35625,51.99861145019531L193.69583333333335,59.44158172607422L197.03541666666666,70.6283187866211L200.375,38.217750549316406L203.71458333333334,91.48394012451172L207.05416666666667,16.611155192057282L210.39374999999998,82.91818491617839L213.73333333333335,86.64244588216145L217.07291666666666,78.07489013671875L220.4125,109.73283386230469L223.75208333333333,12.508031209309877L227.09166666666667,32.625282287597656L230.43125,30.390365600585938L233.77083333333334,36.72660573323569L237.11041666666665,61.68535105387369L240.45000000000002,40.07530466715497L243.78958333333333,32.62873331705728L247.12916666666666,58.697809855143234L250.46875,48.642860412597656L253.80833333333334,45.294161478678376L257.1479166666667,22.94379425048828L260.4875,65.03765106201172L263.82708333333335,53.11074320475261L267.16666666666663,66.89880625406902L270.50625,46.043184916178376L273.8458333333333,34.861849466959626L277.1854166666667,35.23906199137369L280.525,38.959721883138L283.8645833333333,18.112953186035156L287.2041666666667,39.33873494466147L290.54375,2.833745320638002" style="fill: none;" fill="none"></path></g><g><path stroke="rgb(255, 112, 67)" stroke-width="2px" d="M33.39583333333333,132.82862345377603L36.735416666666666,149.58472188313803L40.075,142.13274892171222L43.414583333333326,142.8783213297526L46.75416666666667,161.8691864013672L50.09375,126.85894266764322L53.43333333333334,170.8193562825521L56.77291666666667,152.5578587849935L60.112500000000004,118.66334788004556L63.452083333333334,87.00360361735027L66.79166666666666,70.99847920735678L70.13125,108.61365000406902L73.47083333333333,94.08706665039062L76.81041666666665,82.91818491617839L80.15,91.85049947102864L83.48958333333334,89.99294535319011L86.82916666666665,94.0960693359375L90.16875,71.36503855387369L93.50833333333334,64.27962493896484L96.84791666666668,92.96968332926433L100.1875,101.91265106201172L103.52708333333334,89.243771870931L106.86666666666667,34.119878133138L110.20625,69.5037333170573L113.54583333333333,95.20805104573567L116.88541666666667,87.01245625813802L120.22500000000001,87.76703135172525L123.56458333333333,49.01287078857422L126.90416666666667,67.63897705078125L130.24375,71.73865000406902L133.58333333333331,89.243771870931L136.92291666666665,97.44296773274739L140.2625,80.30440521240234L143.60208333333335,73.23504638671875L146.94166666666666,42.689234415690095L150.28125,30.76397705078125L153.6208333333333,53.49515787760416L156.96041666666667,95.5818125406901L160.3,42.682032267252595L163.63958333333332,43.799415588378906L166.97916666666669,25.929534912109375L170.31875,46.7727025349935L173.6583333333333,66.14618174235027L176.99791666666667,43.43645731608075L180.3375,46.043184916178376L183.67708333333334,51.99516042073567L187.01666666666668,7.305229187011719L190.35625,51.99861145019531L193.69583333333335,59.44158172607422L197.03541666666666,70.6283187866211L200.375,38.217750549316406L203.71458333333334,91.48394012451172L207.05416666666667,16.611155192057282L210.39374999999998,82.91818491617839L213.73333333333335,86.64244588216145L217.07291666666666,78.07489013671875L220.4125,109.73283386230469L223.75208333333333,12.508031209309877L227.09166666666667,32.625282287597656L230.43125,30.390365600585938L233.77083333333334,36.72660573323569L237.11041666666665,61.68535105387369L240.45000000000002,40.07530466715497L243.78958333333333,32.62873331705728L247.12916666666666,58.697809855143234L250.46875,48.642860412597656L253.80833333333334,45.294161478678376L257.1479166666667,22.94379425048828L260.4875,65.03765106201172L263.82708333333335,53.11074320475261L267.16666666666663,66.89880625406902L270.50625,46.043184916178376L273.8458333333333,34.861849466959626L277.1854166666667,35.23906199137369L280.525,38.959721883138L283.8645833333333,18.112953186035156L287.2041666666667,39.33873494466147L290.54375,2.833745320638002" style="fill: none;" fill="none"></path></g></g></g></g></g></g><g transform="translate(29, 177)" clip-path="url(#clip_1)"><clipPath id="clip_1"><rect width="300" height="23"></rect></clipPath><g><g><line x1="0" y1="0" x2="0" y2="5" style="visibility: inherit;" fill="rgb(0, 0, 0)" stroke="rgb(204, 204, 204)" stroke-width="1px"></line><line x1="33.39583333333333" y1="0" x2="33.39583333333333" y2="5" style="visibility: inherit;" fill="rgb(0, 0, 0)" stroke="rgb(204, 204, 204)" stroke-width="1px"></line><line x1="66.79166666666666" y1="0" x2="66.79166666666666" y2="5" style="visibility: inherit;" fill="rgb(0, 0, 0)" stroke="rgb(204, 204, 204)" stroke-width="1px"></line><line x1="100.1875" y1="0" x2="100.1875" y2="5" style="visibility: inherit;" fill="rgb(0, 0, 0)" stroke="rgb(204, 204, 204)" stroke-width="1px"></line><line x1="133.58333333333331" y1="0" x2="133.58333333333331" y2="5" style="visibility: inherit;" fill="rgb(0, 0, 0)" stroke="rgb(204, 204, 204)" stroke-width="1px"></line><line x1="166.97916666666669" y1="0" x2="166.97916666666669" y2="5" style="visibility: inherit;" fill="rgb(0, 0, 0)" stroke="rgb(204, 204, 204)" stroke-width="1px"></line><line x1="200.375" y1="0" x2="200.375" y2="5" style="visibility: inherit;" fill="rgb(0, 0, 0)" stroke="rgb(204, 204, 204)" stroke-width="1px"></line><line x1="233.77083333333334" y1="0" x2="233.77083333333334" y2="5" style="visibility: inherit;" fill="rgb(0, 0, 0)" stroke="rgb(204, 204, 204)" stroke-width="1px"></line><line x1="267.16666666666663" y1="0" x2="267.16666666666663" y2="5" style="visibility: inherit;" fill="rgb(0, 0, 0)" stroke="rgb(204, 204, 204)" stroke-width="1px"></line><line x1="300.5625" y1="0" x2="300.5625" y2="5" style="visibility: inherit;" fill="rgb(0, 0, 0)" stroke="rgb(204, 204, 204)" stroke-width="1px"></line></g><g transform="translate(0, 8)"><text x="0" y="0" dx="0em" dy="0.95em" style="text-anchor: middle; visibility: hidden; font-family: &quot;Helvetica Neue&quot;, sans-serif; font-size: 12px; font-weight: 200;" fill="rgb(50, 49, 63)" stroke="none" stroke-width="1px">-5k</text><text x="33.39583333333333" y="0" dx="0em" dy="0.95em" style="text-anchor: middle; visibility: inherit; font-family: &quot;Helvetica Neue&quot;, sans-serif; font-size: 12px; font-weight: 200;" fill="rgb(50, 49, 63)" stroke="none" stroke-width="1px">0</text><text x="66.79166666666666" y="0" dx="0em" dy="0.95em" style="text-anchor: middle; visibility: inherit; font-family: &quot;Helvetica Neue&quot;, sans-serif; font-size: 12px; font-weight: 200;" fill="rgb(50, 49, 63)" stroke="none" stroke-width="1px">5k</text><text x="100.1875" y="0" dx="0em" dy="0.95em" style="text-anchor: middle; visibility: inherit; font-family: &quot;Helvetica Neue&quot;, sans-serif; font-size: 12px; font-weight: 200;" fill="rgb(50, 49, 63)" stroke="none" stroke-width="1px">10k</text><text x="133.58333333333331" y="0" dx="0em" dy="0.95em" style="text-anchor: middle; visibility: inherit; font-family: &quot;Helvetica Neue&quot;, sans-serif; font-size: 12px; font-weight: 200;" fill="rgb(50, 49, 63)" stroke="none" stroke-width="1px">15k</text><text x="166.97916666666669" y="0" dx="0em" dy="0.95em" style="text-anchor: middle; visibility: inherit; font-family: &quot;Helvetica Neue&quot;, sans-serif; font-size: 12px; font-weight: 200;" fill="rgb(50, 49, 63)" stroke="none" stroke-width="1px">20k</text><text x="200.375" y="0" dx="0em" dy="0.95em" style="text-anchor: middle; visibility: inherit; font-family: &quot;Helvetica Neue&quot;, sans-serif; font-size: 12px; font-weight: 200;" fill="rgb(50, 49, 63)" stroke="none" stroke-width="1px">25k</text><text x="233.77083333333334" y="0" dx="0em" dy="0.95em" style="text-anchor: middle; visibility: inherit; font-family: &quot;Helvetica Neue&quot;, sans-serif; font-size: 12px; font-weight: 200;" fill="rgb(50, 49, 63)" stroke="none" stroke-width="1px">30k</text><text x="267.16666666666663" y="0" dx="0em" dy="0.95em" style="text-anchor: middle; visibility: inherit; font-family: &quot;Helvetica Neue&quot;, sans-serif; font-size: 12px; font-weight: 200;" fill="rgb(50, 49, 63)" stroke="none" stroke-width="1px">35k</text><text x="300.5625" y="0" dx="0em" dy="0.95em" style="text-anchor: middle; visibility: hidden; font-family: &quot;Helvetica Neue&quot;, sans-serif; font-size: 12px; font-weight: 200;" fill="rgb(50, 49, 63)" stroke="none" stroke-width="1px">40k</text></g><line x1="0" y1="0" x2="300.5625" y2="0" fill="rgb(0, 0, 0)" stroke="rgb(204, 204, 204)" stroke-width="1px"></line></g></g></g></g></svg>