<svg viewBox="0 0 330 200" xmlns="http://www.w3.org/2000/svg"><g><g><g><g><g><line x1="48.875" y1="177" x2="43.875" y2="177" style="visibility: inherit;" fill="rgb(0, 0, 0)" stroke="rgb(204, 204, 204)" stroke-width="1px"></line><line x1="48.875" y1="154.875" x2="43.875" y2="154.875" style="visibility: inherit;" fill="rgb(0, 0, 0)" stroke="rgb(204, 204, 204)" stroke-width="1px"></line><line x1="48.875" y1="132.75" x2="43.875" y2="132.75" style="visibility: inherit;" fill="rgb(0, 0, 0)" stroke="rgb(204, 204, 204)" stroke-width="1px"></line><line x1="48.875" y1="110.625" x2="43.875" y2="110.625" style="visibility: inherit;" fill="rgb(0, 0, 0)" stroke="rgb(204, 204, 204)" stroke-width="1px"></line><line x1="48.875" y1="88.5" x2="43.875" y2="88.5" style="visibility: inherit;" fill="rgb(0, 0, 0)" stroke="rgb(204, 204, 204)" stroke-width="1px"></line><line x1="48.875" y1="66.375" x2="43.875" y2="66.375" style="visibility: inherit;" fill="rgb(0, 0, 0)" stroke="rgb(204, 204, 204)" stroke-width="1px"></line><line x1="48.875" y1="44.25" x2="43.875" y2="44.25" style="visibility: inherit;" fill="rgb(0, 0, 0)" stroke="rgb(204, 204, 204)" stroke-width="1px"></line><line x1="48.875" y1="22.125" x2="43.875" y2="22.125" style="visibility: inherit;" fill="rgb(0, 0, 0)" stroke="rgb(204, 204, 204)" stroke-width="1px"></line><line x1="48.875" y1="0" x2="43.875" y2="0" style="visibility: inherit;" fill="rgb(0, 0, 0)" stroke="rgb(204, 204, 204)" stroke-width="1px"></line></g><g transform="translate(38.875, 0)"><text x="0" y="177" dx="0em" dy="0.3em" style="text-anchor: end; visibility: hidden; font-family: &quot;Helvetica Neue&quot;, sans-serif; font-size: 12px; font-weight: 200;" fill="rgb(50, 49, 63)" stroke="none" stroke-width="1px">90</text><text x="0" y="154.875" dx="0em" dy="0.3em" style="text-anchor: end; visibility: inherit; font-family: &quot;Helvetica Neue&quot;, sans-serif; font-size: 12px; font-weight: 200;" fill="rgb(50, 49, 63)" stroke="none" stroke-width="1px">90.5</text><text x="0" y="132.75" dx="0em" dy="0.3em" style="text-anchor: end; visibility: hidden; font-family: &quot;Helvetica Neue&quot;, sans-serif; font-size: 12px; font-weight: 200;" fill="rgb(50, 49, 63)" stroke="none" stroke-width="1px">91</text><text x="0" y="110.625" dx="0em" dy="0.3em" style="text-anchor: end; visibility: inherit; font-family: &quot;Helvetica Neue&quot;, sans-serif; font-size: 12px; font-weight: 200;" fill="rgb(50, 49, 63)" stroke="none" stroke-width="1px">91.5</text><text x="0" y="88.5" dx="0em" dy="0.3em" style="text-anchor: end; visibility: hidden; font-family: &quot;Helvetica Neue&quot;, sans-serif; font-size: 12px; font-weight: 200;" fill="rgb(50, 49, 63)" stroke="none" stroke-width="1px">92</text><text x="0" y="66.375" dx="0em" dy="0.3em" style="text-anchor: end; visibility: inherit; font-family: &quot;Helvetica Neue&quot;, sans-serif; font-size: 12px; font-weight: 200;" fill="rgb(50, 49, 63)" stroke="none" stroke-width="1px">92.5</text><text x="0" y="44.25" dx="0em" dy="0.3em" style="text-anchor: end; visibility: hidden; font-family: &quot;Helvetica Neue&quot;, sans-serif; font-size: 12px; font-weight: 200;" fill="rgb(50, 49, 63)" stroke="none" stroke-width="1px">93</text><text x="0" y="22.125" dx="0em" dy="0.3em" style="text-anchor: end; visibility: inherit; font-family: &quot;Helvetica Neue&quot;, sans-serif; font-size: 12px; font-weight: 200;" fill="rgb(50, 49, 63)" stroke="none" stroke-width="1px">93.5</text><text x="0" y="0" dx="0em" dy="0.3em" style="text-anchor: end; visibility: hidden; font-family: &quot;Helvetica Neue&quot;, sans-serif; font-size: 12px; font-weight: 200;" fill="rgb(50, 49, 63)" stroke="none" stroke-width="1px">94</text></g><line x1="48.875" y1="0" x2="48.875" y2="177" fill="rgb(0, 0, 0)" stroke="rgb(204, 204, 204)" stroke-width="1px"></line></g></g><g transform="translate(48, 0)" clip-path="url(#clip_0)"><clipPath id="clip_0"><rect width="281" height="177"></rect></clipPath><g><g><g><line x1="0" y1="0" x2="0" y2="177" fill="rgb(0, 0, 0)" stroke="rgb(60, 60, 60)" stroke-width="1px" opacity="0.25"></line><line x1="31.23611111111111" y1="0" x2="31.23611111111111" y2="177" fill="rgb(0, 0, 0)" stroke="rgb(60, 60, 60)" stroke-width="1px" opacity="0.25"></line><line x1="62.47222222222222" y1="0" x2="62.47222222222222" y2="177" fill="rgb(0, 0, 0)" stroke="rgb(60, 60, 60)" stroke-width="1px" opacity="0.25"></line><line x1="93.70833333333333" y1="0" x2="93.70833333333333" y2="177" fill="rgb(0, 0, 0)" stroke="rgb(60, 60, 60)" stroke-width="1px" opacity="0.25"></line><line x1="124.94444444444444" y1="0" x2="124.94444444444444" y2="177" fill="rgb(0, 0, 0)" stroke="rgb(60, 60, 60)" stroke-width="1px" opacity="0.25"></line><line x1="156.18055555555557" y1="0" x2="156.18055555555557" y2="177" fill="rgb(0, 0, 0)" stroke="rgb(60, 60, 60)" stroke-width="1px" opacity="0.25"></line><line x1="187.41666666666666" y1="0" x2="187.41666666666666" y2="177" fill="rgb(0, 0, 0)" stroke="rgb(60, 60, 60)" stroke-width="1px" opacity="0.25"></line><line x1="218.65277777777777" y1="0" x2="218.65277777777777" y2="177" fill="rgb(0, 0, 0)" stroke="rgb(60, 60, 60)" stroke-width="1px" opacity="0.25"></line><line x1="249.88888888888889" y1="0" x2="249.88888888888889" y2="177" fill="rgb(0, 0, 0)" stroke="rgb(60, 60, 60)" stroke-width="1px" opacity="0.25"></line><line x1="281.125" y1="0" x2="281.125" y2="177" fill="rgb(0, 0, 0)" stroke="rgb(60, 60, 60)" stroke-width="1px" opacity="0.25"></line></g><g><line x1="0" y1="177" x2="281.125" y2="177" fill="rgb(0, 0, 0)" stroke="rgb(60, 60, 60)" stroke-width="1px" opacity="0.25"></line><line x1="0" y1="154.875" x2="281.125" y2="154.875" fill="rgb(0, 0, 0)" stroke="rgb(60, 60, 60)" stroke-width="1px" opacity="0.25"></line><line x1="0" y1="132.75" x2="281.125" y2="132.75" fill="rgb(0, 0, 0)" stroke="rgb(60, 60, 60)" stroke-width="1px" opacity="0.25"></line><line x1="0" y1="110.625" x2="281.125" y2="110.625" fill="rgb(0, 0, 0)" stroke="rgb(60, 60, 60)" stroke-width="1px" opacity="0.25"></line><line x1="0" y1="88.5" x2="281.125" y2="88.5" fill="rgb(0, 0, 0)" stroke="rgb(60, 60, 60)" stroke-width="1px" opacity="0.25"></line><line x1="0" y1="66.375" x2="281.125" y2="66.375" fill="rgb(0, 0, 0)" stroke="rgb(60, 60, 60)" stroke-width="1px" opacity="0.25"></line><line x1="0" y1="44.25" x2="281.125" y2="44.25" fill="rgb(0, 0, 0)" stroke="rgb(60, 60, 60)" stroke-width="1px" opacity="0.25"></line><line x1="0" y1="22.125" x2="281.125" y2="22.125" fill="rgb(0, 0, 0)" stroke="rgb(60, 60, 60)" stroke-width="1px" opacity="0.25"></line><line x1="0" y1="0" x2="281.125" y2="0" fill="rgb(0, 0, 0)" stroke="rgb(60, 60, 60)" stroke-width="1px" opacity="0.25"></line></g></g></g><g><g><line x1="0" y1="4159.5" x2="281.125" y2="4159.5" fill="rgb(0, 0, 0)" stroke="rgb(153, 153, 153)" stroke-width="1.5px"></line></g></g><g><g><line x1="31.23611111111111" y1="0" x2="31.23611111111111" y2="177" fill="rgb(0, 0, 0)" stroke="rgb(153, 153, 153)" stroke-width="1.5px"></line></g></g><g><g><g><g><g><path stroke="rgb(0, 119, 187)" stroke-width="2px" d="M31.23611111111111,196.81209754943848L34.359722222222224,162.60871481895447L37.483333333333334,132.7696566289782L40.60694444444444,135.1416701569276L43.730555555555554,140.59659296865675L46.854166666666664,151.36911333132193L49.97777777777778,157.83443185785774L53.101388888888884,158.26871388314305L56.225,126.01509161684714L59.34861111111111,119.5252907684112L62.47222222222222,111.08796833950908L65.59583333333333,110.5685058683116L68.71944444444445,109.29737790996711L71.84305555555555,100.17481033182166L74.96666666666667,104.98143743223004L78.09027777777779,86.57291100248037L81.21388888888887,82.65745609918847L84.33749999999999,76.11166928228539L87.46111111111111,62.20764372443202L90.58472222222223,71.25257272383038L93.70833333333333,78.95952367542166L96.83194444444445,72.27313825235231L99.95555555555556,65.03509043879765L103.07916666666667,68.77800864416008L106.20277777777777,79.06271913081446L109.32638888888889,94.88176628149591L112.45,89.89130746882762L115.5736111111111,87.57277744226622L118.69722222222222,90.67431717479289L121.82083333333334,88.33224557934098L124.94444444444444,78.20569518650426L128.06805555555556,80.8768658108201L131.19166666666666,83.42566031865101L134.3152777777778,77.85411353033906L137.4388888888889,80.97961523614232L140.5625,68.6563755819611L143.6861111111111,70.93631269849092L146.80972222222223,75.50310919977268L149.93333333333334,62.15867396181332L153.05694444444444,65.7454912471167L156.18055555555557,57.282470064968635L159.30416666666667,70.85723152671501L162.42777777777775,68.07476371991274L165.55138888888888,75.38883787798987L168.67499999999998,73.38109935744528L171.79861111111111,60.57649591737949L174.92222222222222,42.26889941131543L178.04583333333332,32.2161194622372L181.16944444444445,49.08012638948415L184.29305555555555,66.90771023324842L187.41666666666666,69.56679792340927L190.5402777777778,70.2289871402778L193.6638888888889,57.05691285299093L196.7875,55.58995825866805L199.91111111111113,64.69263843787175L203.03472222222223,64.05420687253725L206.15833333333333,101.02774659667506L209.28194444444446,68.7651136867609L212.40555555555554,51.68593359901817L215.52916666666667,41.38049326487928L218.65277777777777,43.932984984805955L221.77638888888887,43.54002094083512L224.9,43.94635906108323L228.0236111111111,48.04542697839824L231.1472222222222,43.746776755885975L234.27083333333334,35.703046522281824L237.39444444444445,42.46393988236298L240.51805555555555,51.3477609020743L243.64166666666668,54.103510514633L246.76527777777778,63.80725172503918L249.88888888888889,71.55557601060946L253.01250000000002,54.29995632413873L256.1361111111111,43.65692310478522L259.25972222222225,44.01812084285211L262.3833333333333,34.23267578940255L265.50694444444446,32.22167029297759L268.6305555555556,33.608920754888004L271.75416666666666,42.51397916191729" style="fill: none;" fill="none"></path></g><g><path stroke="rgb(255, 112, 67)" stroke-width="2px" d="M31.23611111111111,196.81209754943848L34.359722222222224,162.60871481895447L37.483333333333334,132.7696566289782L40.60694444444444,135.1416701569276L43.730555555555554,140.59659296865675L46.854166666666664,151.36911333132193L49.97777777777778,157.83443185785774L53.101388888888884,158.26871388314305L56.225,126.01509161684714L59.34861111111111,119.5252907684112L62.47222222222222,111.08796833950908L65.59583333333333,110.5685058683116L68.71944444444445,109.29737790996711L71.84305555555555,100.17481033182166L74.96666666666667,104.98143743223004L78.09027777777779,86.57291100248037L81.21388888888887,82.65745609918847L84.33749999999999,76.11166928228539L87.46111111111111,62.20764372443202L90.58472222222223,71.25257272383038L93.70833333333333,78.95952367542166L96.83194444444445,72.27313825235231L99.95555555555556,65.03509043879765L103.07916666666667,68.77800864416008L106.20277777777777,79.06271913081446L109.32638888888889,94.88176628149591L112.45,89.89130746882762L115.5736111111111,87.57277744226622L118.69722222222222,90.67431717479289L121.82083333333334,88.33224557934098L124.94444444444444,78.20569518650426L128.06805555555556,80.8768658108201L131.19166666666666,83.42566031865101L134.3152777777778,77.85411353033906L137.4388888888889,80.97961523614232L140.5625,68.6563755819611L143.6861111111111,70.93631269849092L146.80972222222223,75.50310919977268L149.93333333333334,62.15867396181332L153.05694444444444,65.7454912471167L156.18055555555557,57.282470064968635L159.30416666666667,70.85723152671501L162.42777777777775,68.07476371991274L165.55138888888888,75.38883787798987L168.67499999999998,73.38109935744528L171.79861111111111,60.57649591737949L174.92222222222222,42.26889941131543L178.04583333333332,32.2161194622372L181.16944444444445,49.08012638948415L184.29305555555555,66.90771023324842L187.41666666666666,69.56679792340927L190.5402777777778,70.2289871402778L193.6638888888889,57.05691285299093L196.7875,55.58995825866805L199.91111111111113,64.69263843787175L203.03472222222223,64.05420687253725L206.15833333333333,101.02774659667506L209.28194444444446,68.7651136867609L212.40555555555554,51.68593359901817L215.52916666666667,41.38049326487928L218.65277777777777,43.932984984805955L221.77638888888887,43.54002094083512L224.9,43.94635906108323L228.0236111111111,48.04542697839824L231.1472222222222,43.746776755885975L234.27083333333334,35.703046522281824L237.39444444444445,42.46393988236298L240.51805555555555,51.3477609020743L243.64166666666668,54.103510514633L246.76527777777778,63.80725172503918L249.88888888888889,71.55557601060946L253.01250000000002,54.29995632413873L256.1361111111111,43.65692310478522L259.25972222222225,44.01812084285211L262.3833333333333,34.23267578940255L265.50694444444446,32.22167029297759L268.6305555555556,33.608920754888004L271.75416666666666,42.51397916191729" style="fill: none;" fill="none"></path></g></g></g></g><g opacity="0.2"><g><g><g><path stroke="rgb(0, 119, 187)" stroke-width="2px" d="M31.23611111111111,196.81209754943848L34.359722222222224,142.08668518066406L37.483333333333334,104.12416076660156L40.60694444444444,137.9311580657959L43.730555555555554,147.7185401916504L46.854166666666664,166.27138710021973L49.97777777777778,167.07994079589844L53.101388888888884,158.9019012451172L56.225,78.44726371765137L59.34861111111111,109.88869285583496L62.47222222222222,98.50851058959961L65.59583333333333,109.79213905334473L68.71944444444445,107.39483642578125L71.84305555555555,86.50883102416992L74.96666666666667,112.18572807312012L78.09027777777779,58.97310447692871L81.21388888888887,76.78593063354492L84.33749999999999,66.29465103149414L87.46111111111111,41.35372352600098L90.58472222222223,84.81913948059082L93.70833333333333,90.51952743530273L96.83194444444445,62.2437801361084L99.95555555555556,54.17816162109375L103.07916666666667,74.39234161376953L106.20277777777777,94.48971176147461L109.32638888888889,118.61026954650879L112.45,82.40563201904297L115.5736111111111,84.09498596191406L118.69722222222222,95.32662391662598L121.82083333333334,84.81913948059082L124.94444444444444,63.015872955322266L128.06805555555556,84.88362121582031L131.19166666666666,87.24885177612305L134.3152777777778,69.49679374694824L137.4388888888889,85.66786766052246L140.5625,50.17151641845703L143.6861111111111,74.3562183380127L146.80972222222223,82.35330390930176L149.93333333333334,42.14202117919922L153.05694444444444,71.12571716308594L156.18055555555557,44.58793830871582L159.30416666666667,91.21937370300293L162.42777777777775,63.90106201171875L165.55138888888888,86.35994911193848L168.67499999999998,70.36949157714844L171.79861111111111,41.369590759277344L174.92222222222222,14.807504653930664L178.04583333333332,17.13694953918457L181.16944444444445,74.37613677978516L184.29305555555555,93.64908599853516L187.41666666666666,73.55542945861816L190.5402777777778,71.22227096557617L193.6638888888889,37.29880142211914L196.7875,53.3895263671875L199.91111111111113,78.34665870666504L203.03472222222223,63.09655952453613L206.15833333333333,156.48805618286133L209.28194444444446,20.371164321899414L212.40555555555554,26.067163467407227L215.52916666666667,25.922332763671875L218.65277777777777,47.761722564697266L221.77638888888887,42.95057487487793L224.9,44.55586624145508L228.0236111111111,54.19402885437012L231.1472222222222,37.29880142211914L234.27083333333334,23.637451171875L237.39444444444445,52.60527992248535L240.51805555555555,64.67349243164062L243.64166666666668,58.23713493347168L246.76527777777778,78.36286354064941L249.88888888888889,83.17806243896484L253.01250000000002,28.416526794433594L256.1361111111111,27.692373275756836L259.25972222222225,44.55991744995117L262.3833333333333,19.554508209228516L265.50694444444446,29.205162048339844L268.6305555555556,35.689796447753906L271.75416666666666,55.87156677246094" style="fill: none;" fill="none"></path></g><g><path stroke="rgb(255, 112, 67)" stroke-width="2px" d="M31.23611111111111,196.81209754943848L34.359722222222224,142.08668518066406L37.483333333333334,104.12416076660156L40.60694444444444,137.9311580657959L43.730555555555554,147.7185401916504L46.854166666666664,166.27138710021973L49.97777777777778,167.07994079589844L53.101388888888884,158.9019012451172L56.225,78.44726371765137L59.34861111111111,109.88869285583496L62.47222222222222,98.50851058959961L65.59583333333333,109.79213905334473L68.71944444444445,107.39483642578125L71.84305555555555,86.50883102416992L74.96666666666667,112.18572807312012L78.09027777777779,58.97310447692871L81.21388888888887,76.78593063354492L84.33749999999999,66.29465103149414L87.46111111111111,41.35372352600098L90.58472222222223,84.81913948059082L93.70833333333333,90.51952743530273L96.83194444444445,62.2437801361084L99.95555555555556,54.17816162109375L103.07916666666667,74.39234161376953L106.20277777777777,94.48971176147461L109.32638888888889,118.61026954650879L112.45,82.40563201904297L115.5736111111111,84.09498596191406L118.69722222222222,95.32662391662598L121.82083333333334,84.81913948059082L124.94444444444444,63.015872955322266L128.06805555555556,84.88362121582031L131.19166666666666,87.24885177612305L134.3152777777778,69.49679374694824L137.4388888888889,85.66786766052246L140.5625,50.17151641845703L143.6861111111111,74.3562183380127L146.80972222222223,82.35330390930176L149.93333333333334,42.14202117919922L153.05694444444444,71.12571716308594L156.18055555555557,44.58793830871582L159.30416666666667,91.21937370300293L162.42777777777775,63.90106201171875L165.55138888888888,86.35994911193848L168.67499999999998,70.36949157714844L171.79861111111111,41.369590759277344L174.92222222222222,14.807504653930664L178.04583333333332,17.13694953918457L181.16944444444445,74.37613677978516L184.29305555555555,93.64908599853516L187.41666666666666,73.55542945861816L190.5402777777778,71.22227096557617L193.6638888888889,37.29880142211914L196.7875,53.3895263671875L199.91111111111113,78.34665870666504L203.03472222222223,63.09655952453613L206.15833333333333,156.48805618286133L209.28194444444446,20.371164321899414L212.40555555555554,26.067163467407227L215.52916666666667,25.922332763671875L218.65277777777777,47.761722564697266L221.77638888888887,42.95057487487793L224.9,44.55586624145508L228.0236111111111,54.19402885437012L231.1472222222222,37.29880142211914L234.27083333333334,23.637451171875L237.39444444444445,52.60527992248535L240.51805555555555,64.67349243164062L243.64166666666668,58.23713493347168L246.76527777777778,78.36286354064941L249.88888888888889,83.17806243896484L253.01250000000002,28.416526794433594L256.1361111111111,27.692373275756836L259.25972222222225,44.55991744995117L262.3833333333333,19.554508209228516L265.50694444444446,29.205162048339844L268.6305555555556,35.689796447753906L271.75416666666666,55.87156677246094" style="fill: none;" fill="none"></path></g></g></g></g></g></g><g transform="translate(48, 177)" clip-path="url(#clip_1)"><clipPath id="clip_1"><rect width="281" height="23"></rect></clipPath><g><g><line x1="0" y1="0" x2="0" y2="5" style="visibility: inherit;" fill="rgb(0, 0, 0)" stroke="rgb(204, 204, 204)" stroke-width="1px"></line><line x1="31.23611111111111" y1="0" x2="31.23611111111111" y2="5" style="visibility: inherit;" fill="rgb(0, 0, 0)" stroke="rgb(204, 204, 204)" stroke-width="1px"></line><line x1="62.47222222222222" y1="0" x2="62.47222222222222" y2="5" style="visibility: inherit;" fill="rgb(0, 0, 0)" stroke="rgb(204, 204, 204)" stroke-width="1px"></line><line x1="93.70833333333333" y1="0" x2="93.70833333333333" y2="5" style="visibility: inherit;" fill="rgb(0, 0, 0)" stroke="rgb(204, 204, 204)" stroke-width="1px"></line><line x1="124.94444444444444" y1="0" x2="124.94444444444444" y2="5" style="visibility: inherit;" fill="rgb(0, 0, 0)" stroke="rgb(204, 204, 204)" stroke-width="1px"></line><line x1="156.18055555555557" y1="0" x2="156.18055555555557" y2="5" style="visibility: inherit;" fill="rgb(0, 0, 0)" stroke="rgb(204, 204, 204)" stroke-width="1px"></line><line x1="187.41666666666666" y1="0" x2="187.41666666666666" y2="5" style="visibility: inherit;" fill="rgb(0, 0, 0)" stroke="rgb(204, 204, 204)" stroke-width="1px"></line><line x1="218.65277777777777" y1="0" x2="218.65277777777777" y2="5" style="visibility: inherit;" fill="rgb(0, 0, 0)" stroke="rgb(204, 204, 204)" stroke-width="1px"></line><line x1="249.88888888888889" y1="0" x2="249.88888888888889" y2="5" style="visibility: inherit;" fill="rgb(0, 0, 0)" stroke="rgb(204, 204, 204)" stroke-width="1px"></line><line x1="281.125" y1="0" x2="281.125" y2="5" style="visibility: inherit;" fill="rgb(0, 0, 0)" stroke="rgb(204, 204, 204)" stroke-width="1px"></line></g><g transform="translate(0, 8)"><text x="0" y="0" dx="0em" dy="0.95em" style="text-anchor: middle; visibility: hidden; font-family: &quot;Helvetica Neue&quot;, sans-serif; font-size: 12px; font-weight: 200;" fill="rgb(50, 49, 63)" stroke="none" stroke-width="1px">-5k</text><text x="31.23611111111111" y="0" dx="0em" dy="0.95em" style="text-anchor: middle; visibility: inherit; font-family: &quot;Helvetica Neue&quot;, sans-serif; font-size: 12px; font-weight: 200;" fill="rgb(50, 49, 63)" stroke="none" stroke-width="1px">0</text><text x="62.47222222222222" y="0" dx="0em" dy="0.95em" style="text-anchor: middle; visibility: inherit; font-family: &quot;Helvetica Neue&quot;, sans-serif; font-size: 12px; font-weight: 200;" fill="rgb(50, 49, 63)" stroke="none" stroke-width="1px">5k</text><text x="93.70833333333333" y="0" dx="0em" dy="0.95em" style="text-anchor: middle; visibility: inherit; font-family: &quot;Helvetica Neue&quot;, sans-serif; font-size: 12px; font-weight: 200;" fill="rgb(50, 49, 63)" stroke="none" stroke-width="1px">10k</text><text x="124.94444444444444" y="0" dx="0em" dy="0.95em" style="text-anchor: middle; visibility: inherit; font-family: &quot;Helvetica Neue&quot;, sans-serif; font-size: 12px; font-weight: 200;" fill="rgb(50, 49, 63)" stroke="none" stroke-width="1px">15k</text><text x="156.18055555555557" y="0" dx="0em" dy="0.95em" style="text-anchor: middle; visibility: inherit; font-family: &quot;Helvetica Neue&quot;, sans-serif; font-size: 12px; font-weight: 200;" fill="rgb(50, 49, 63)" stroke="none" stroke-width="1px">20k</text><text x="187.41666666666666" y="0" dx="0em" dy="0.95em" style="text-anchor: middle; visibility: inherit; font-family: &quot;Helvetica Neue&quot;, sans-serif; font-size: 12px; font-weight: 200;" fill="rgb(50, 49, 63)" stroke="none" stroke-width="1px">25k</text><text x="218.65277777777777" y="0" dx="0em" dy="0.95em" style="text-anchor: middle; visibility: inherit; font-family: &quot;Helvetica Neue&quot;, sans-serif; font-size: 12px; font-weight: 200;" fill="rgb(50, 49, 63)" stroke="none" stroke-width="1px">30k</text><text x="249.88888888888889" y="0" dx="0em" dy="0.95em" style="text-anchor: middle; visibility: inherit; font-family: &quot;Helvetica Neue&quot;, sans-serif; font-size: 12px; font-weight: 200;" fill="rgb(50, 49, 63)" stroke="none" stroke-width="1px">35k</text><text x="281.125" y="0" dx="0em" dy="0.95em" style="text-anchor: middle; visibility: hidden; font-family: &quot;Helvetica Neue&quot;, sans-serif; font-size: 12px; font-weight: 200;" fill="rgb(50, 49, 63)" stroke="none" stroke-width="1px">40k</text></g><line x1="0" y1="0" x2="281.125" y2="0" fill="rgb(0, 0, 0)" stroke="rgb(204, 204, 204)" stroke-width="1px"></line></g></g></g></g></svg>