<svg viewBox="0 0 330 200" xmlns="http://www.w3.org/2000/svg"><g><g><g><g><g><line x1="48.875" y1="177" x2="43.875" y2="177" style="visibility: inherit;" fill="rgb(0, 0, 0)" stroke="rgb(204, 204, 204)" stroke-width="1px"></line><line x1="48.875" y1="163.3846153846154" x2="43.875" y2="163.3846153846154" style="visibility: inherit;" fill="rgb(0, 0, 0)" stroke="rgb(204, 204, 204)" stroke-width="1px"></line><line x1="48.875" y1="149.76923076923077" x2="43.875" y2="149.76923076923077" style="visibility: inherit;" fill="rgb(0, 0, 0)" stroke="rgb(204, 204, 204)" stroke-width="1px"></line><line x1="48.875" y1="136.15384615384616" x2="43.875" y2="136.15384615384616" style="visibility: inherit;" fill="rgb(0, 0, 0)" stroke="rgb(204, 204, 204)" stroke-width="1px"></line><line x1="48.875" y1="122.53846153846153" x2="43.875" y2="122.53846153846153" style="visibility: inherit;" fill="rgb(0, 0, 0)" stroke="rgb(204, 204, 204)" stroke-width="1px"></line><line x1="48.875" y1="108.92307692307692" x2="43.875" y2="108.92307692307692" style="visibility: inherit;" fill="rgb(0, 0, 0)" stroke="rgb(204, 204, 204)" stroke-width="1px"></line><line x1="48.875" y1="95.3076923076923" x2="43.875" y2="95.3076923076923" style="visibility: inherit;" fill="rgb(0, 0, 0)" stroke="rgb(204, 204, 204)" stroke-width="1px"></line><line x1="48.875" y1="81.6923076923077" x2="43.875" y2="81.6923076923077" style="visibility: inherit;" fill="rgb(0, 0, 0)" stroke="rgb(204, 204, 204)" stroke-width="1px"></line><line x1="48.875" y1="68.07692307692307" x2="43.875" y2="68.07692307692307" style="visibility: inherit;" fill="rgb(0, 0, 0)" stroke="rgb(204, 204, 204)" stroke-width="1px"></line><line x1="48.875" y1="54.46153846153847" x2="43.875" y2="54.46153846153847" style="visibility: inherit;" fill="rgb(0, 0, 0)" stroke="rgb(204, 204, 204)" stroke-width="1px"></line><line x1="48.875" y1="40.84615384615384" x2="43.875" y2="40.84615384615384" style="visibility: inherit;" fill="rgb(0, 0, 0)" stroke="rgb(204, 204, 204)" stroke-width="1px"></line><line x1="48.875" y1="27.230769230769226" x2="43.875" y2="27.230769230769226" style="visibility: inherit;" fill="rgb(0, 0, 0)" stroke="rgb(204, 204, 204)" stroke-width="1px"></line><line x1="48.875" y1="13.615384615384613" x2="43.875" y2="13.615384615384613" style="visibility: inherit;" fill="rgb(0, 0, 0)" stroke="rgb(204, 204, 204)" stroke-width="1px"></line><line x1="48.875" y1="0" x2="43.875" y2="0" style="visibility: inherit;" fill="rgb(0, 0, 0)" stroke="rgb(204, 204, 204)" stroke-width="1px"></line></g><g transform="translate(38.875, 0)"><text x="0" y="177" dx="0em" dy="0.3em" style="text-anchor: end; visibility: hidden; font-family: &quot;Helvetica Neue&quot;, sans-serif; font-size: 12px; font-weight: 200;" fill="rgb(50, 49, 63)" stroke="none" stroke-width="1px">84</text><text x="0" y="163.3846153846154" dx="0em" dy="0.3em" style="text-anchor: end; visibility: inherit; font-family: &quot;Helvetica Neue&quot;, sans-serif; font-size: 12px; font-weight: 200;" fill="rgb(50, 49, 63)" stroke="none" stroke-width="1px">84.5</text><text x="0" y="149.76923076923077" dx="0em" dy="0.3em" style="text-anchor: end; visibility: hidden; font-family: &quot;Helvetica Neue&quot;, sans-serif; font-size: 12px; font-weight: 200;" fill="rgb(50, 49, 63)" stroke="none" stroke-width="1px">85</text><text x="0" y="136.15384615384616" dx="0em" dy="0.3em" style="text-anchor: end; visibility: inherit; font-family: &quot;Helvetica Neue&quot;, sans-serif; font-size: 12px; font-weight: 200;" fill="rgb(50, 49, 63)" stroke="none" stroke-width="1px">85.5</text><text x="0" y="122.53846153846153" dx="0em" dy="0.3em" style="text-anchor: end; visibility: hidden; font-family: &quot;Helvetica Neue&quot;, sans-serif; font-size: 12px; font-weight: 200;" fill="rgb(50, 49, 63)" stroke="none" stroke-width="1px">86</text><text x="0" y="108.92307692307692" dx="0em" dy="0.3em" style="text-anchor: end; visibility: inherit; font-family: &quot;Helvetica Neue&quot;, sans-serif; font-size: 12px; font-weight: 200;" fill="rgb(50, 49, 63)" stroke="none" stroke-width="1px">86.5</text><text x="0" y="95.3076923076923" dx="0em" dy="0.3em" style="text-anchor: end; visibility: hidden; font-family: &quot;Helvetica Neue&quot;, sans-serif; font-size: 12px; font-weight: 200;" fill="rgb(50, 49, 63)" stroke="none" stroke-width="1px">87</text><text x="0" y="81.6923076923077" dx="0em" dy="0.3em" style="text-anchor: end; visibility: inherit; font-family: &quot;Helvetica Neue&quot;, sans-serif; font-size: 12px; font-weight: 200;" fill="rgb(50, 49, 63)" stroke="none" stroke-width="1px">87.5</text><text x="0" y="68.07692307692307" dx="0em" dy="0.3em" style="text-anchor: end; visibility: hidden; font-family: &quot;Helvetica Neue&quot;, sans-serif; font-size: 12px; font-weight: 200;" fill="rgb(50, 49, 63)" stroke="none" stroke-width="1px">88</text><text x="0" y="54.46153846153847" dx="0em" dy="0.3em" style="text-anchor: end; visibility: inherit; font-family: &quot;Helvetica Neue&quot;, sans-serif; font-size: 12px; font-weight: 200;" fill="rgb(50, 49, 63)" stroke="none" stroke-width="1px">88.5</text><text x="0" y="40.84615384615384" dx="0em" dy="0.3em" style="text-anchor: end; visibility: hidden; font-family: &quot;Helvetica Neue&quot;, sans-serif; font-size: 12px; font-weight: 200;" fill="rgb(50, 49, 63)" stroke="none" stroke-width="1px">89</text><text x="0" y="27.230769230769226" dx="0em" dy="0.3em" style="text-anchor: end; visibility: inherit; font-family: &quot;Helvetica Neue&quot;, sans-serif; font-size: 12px; font-weight: 200;" fill="rgb(50, 49, 63)" stroke="none" stroke-width="1px">89.5</text><text x="0" y="13.615384615384613" dx="0em" dy="0.3em" style="text-anchor: end; visibility: hidden; font-family: &quot;Helvetica Neue&quot;, sans-serif; font-size: 12px; font-weight: 200;" fill="rgb(50, 49, 63)" stroke="none" stroke-width="1px">90</text><text x="0" y="0" dx="0em" dy="0.3em" style="text-anchor: end; visibility: hidden; font-family: &quot;Helvetica Neue&quot;, sans-serif; font-size: 12px; font-weight: 200;" fill="rgb(50, 49, 63)" stroke="none" stroke-width="1px">90.5</text></g><line x1="48.875" y1="0" x2="48.875" y2="177" fill="rgb(0, 0, 0)" stroke="rgb(204, 204, 204)" stroke-width="1px"></line></g></g><g transform="translate(48, 0)" clip-path="url(#clip_0)"><clipPath id="clip_0"><rect width="281" height="177"></rect></clipPath><g><g><g><line x1="0" y1="0" x2="0" y2="177" fill="rgb(0, 0, 0)" stroke="rgb(60, 60, 60)" stroke-width="1px" opacity="0.25"></line><line x1="31.23611111111111" y1="0" x2="31.23611111111111" y2="177" fill="rgb(0, 0, 0)" stroke="rgb(60, 60, 60)" stroke-width="1px" opacity="0.25"></line><line x1="62.47222222222222" y1="0" x2="62.47222222222222" y2="177" fill="rgb(0, 0, 0)" stroke="rgb(60, 60, 60)" stroke-width="1px" opacity="0.25"></line><line x1="93.70833333333333" y1="0" x2="93.70833333333333" y2="177" fill="rgb(0, 0, 0)" stroke="rgb(60, 60, 60)" stroke-width="1px" opacity="0.25"></line><line x1="124.94444444444444" y1="0" x2="124.94444444444444" y2="177" fill="rgb(0, 0, 0)" stroke="rgb(60, 60, 60)" stroke-width="1px" opacity="0.25"></line><line x1="156.18055555555557" y1="0" x2="156.18055555555557" y2="177" fill="rgb(0, 0, 0)" stroke="rgb(60, 60, 60)" stroke-width="1px" opacity="0.25"></line><line x1="187.41666666666666" y1="0" x2="187.41666666666666" y2="177" fill="rgb(0, 0, 0)" stroke="rgb(60, 60, 60)" stroke-width="1px" opacity="0.25"></line><line x1="218.65277777777777" y1="0" x2="218.65277777777777" y2="177" fill="rgb(0, 0, 0)" stroke="rgb(60, 60, 60)" stroke-width="1px" opacity="0.25"></line><line x1="249.88888888888889" y1="0" x2="249.88888888888889" y2="177" fill="rgb(0, 0, 0)" stroke="rgb(60, 60, 60)" stroke-width="1px" opacity="0.25"></line><line x1="281.125" y1="0" x2="281.125" y2="177" fill="rgb(0, 0, 0)" stroke="rgb(60, 60, 60)" stroke-width="1px" opacity="0.25"></line></g><g><line x1="0" y1="177" x2="281.125" y2="177" fill="rgb(0, 0, 0)" stroke="rgb(60, 60, 60)" stroke-width="1px" opacity="0.25"></line><line x1="0" y1="163.3846153846154" x2="281.125" y2="163.3846153846154" fill="rgb(0, 0, 0)" stroke="rgb(60, 60, 60)" stroke-width="1px" opacity="0.25"></line><line x1="0" y1="149.76923076923077" x2="281.125" y2="149.76923076923077" fill="rgb(0, 0, 0)" stroke="rgb(60, 60, 60)" stroke-width="1px" opacity="0.25"></line><line x1="0" y1="136.15384615384616" x2="281.125" y2="136.15384615384616" fill="rgb(0, 0, 0)" stroke="rgb(60, 60, 60)" stroke-width="1px" opacity="0.25"></line><line x1="0" y1="122.53846153846153" x2="281.125" y2="122.53846153846153" fill="rgb(0, 0, 0)" stroke="rgb(60, 60, 60)" stroke-width="1px" opacity="0.25"></line><line x1="0" y1="108.92307692307692" x2="281.125" y2="108.92307692307692" fill="rgb(0, 0, 0)" stroke="rgb(60, 60, 60)" stroke-width="1px" opacity="0.25"></line><line x1="0" y1="95.3076923076923" x2="281.125" y2="95.3076923076923" fill="rgb(0, 0, 0)" stroke="rgb(60, 60, 60)" stroke-width="1px" opacity="0.25"></line><line x1="0" y1="81.6923076923077" x2="281.125" y2="81.6923076923077" fill="rgb(0, 0, 0)" stroke="rgb(60, 60, 60)" stroke-width="1px" opacity="0.25"></line><line x1="0" y1="68.07692307692307" x2="281.125" y2="68.07692307692307" fill="rgb(0, 0, 0)" stroke="rgb(60, 60, 60)" stroke-width="1px" opacity="0.25"></line><line x1="0" y1="54.46153846153847" x2="281.125" y2="54.46153846153847" fill="rgb(0, 0, 0)" stroke="rgb(60, 60, 60)" stroke-width="1px" opacity="0.25"></line><line x1="0" y1="40.84615384615384" x2="281.125" y2="40.84615384615384" fill="rgb(0, 0, 0)" stroke="rgb(60, 60, 60)" stroke-width="1px" opacity="0.25"></line><line x1="0" y1="27.230769230769226" x2="281.125" y2="27.230769230769226" fill="rgb(0, 0, 0)" stroke="rgb(60, 60, 60)" stroke-width="1px" opacity="0.25"></line><line x1="0" y1="13.615384615384613" x2="281.125" y2="13.615384615384613" fill="rgb(0, 0, 0)" stroke="rgb(60, 60, 60)" stroke-width="1px" opacity="0.25"></line><line x1="0" y1="0" x2="281.125" y2="0" fill="rgb(0, 0, 0)" stroke="rgb(60, 60, 60)" stroke-width="1px" opacity="0.25"></line></g></g></g><g><g><line x1="0" y1="2464.3846153846152" x2="281.125" y2="2464.3846153846152" fill="rgb(0, 0, 0)" stroke="rgb(153, 153, 153)" stroke-width="1.5px"></line></g></g><g><g><line x1="31.23611111111111" y1="0" x2="31.23611111111111" y2="177" fill="rgb(0, 0, 0)" stroke="rgb(153, 153, 153)" stroke-width="1.5px"></line></g></g><g><g><g><g><g><path stroke="rgb(0, 119, 187)" stroke-width="2px" d="M31.23611111111111,160.47252361591046L34.359722222222224,143.46874457139197L37.483333333333334,137.54929774597218L40.60694444444444,142.69342774179748L43.730555555555554,145.11135727903752L46.854166666666664,147.22145830945703L49.97777777777778,149.389560303392L53.101388888888884,136.92109780777182L56.225,129.3825871485488L59.34861111111111,110.19586218855089L62.47222222222222,107.41087603672632L65.59583333333333,106.12613540277785L68.71944444444445,106.66773006071169L71.84305555555555,96.85527158341051L74.96666666666667,93.22608527958953L78.09027777777779,89.17136970529354L81.21388888888887,79.80118270989814L84.33749999999999,72.86478440616281L87.46111111111111,69.64690754451368L90.58472222222223,64.15410487151179L93.70833333333333,75.8569117291352L96.83194444444445,75.19075710958468L99.95555555555556,78.3576574232562L103.07916666666667,64.31439316476727L106.20277777777777,65.45126777435688L109.32638888888889,72.8856654549621L112.45,70.96665403214445L115.5736111111111,61.1896177629214L118.69722222222222,76.70747285227104L121.82083333333334,56.57199794608222L124.94444444444444,57.80992772917932L128.06805555555556,66.61031130424644L131.19166666666666,63.45579985682372L134.3152777777778,44.30909948270633L137.4388888888889,48.56993476662666L140.5625,40.99750042655242L143.6861111111111,45.45769499507213L146.80972222222223,58.07917543107851L149.93333333333334,44.273400097179774L153.05694444444444,37.67955894222192L156.18055555555557,41.59365127141737L159.30416666666667,46.94332502398828L162.42777777777775,51.28015470239393L165.55138888888888,56.69266933228971L168.67499999999998,46.06377101308263L171.79861111111111,36.308929111147194L174.92222222222222,24.645302910212138L178.04583333333332,16.520018660007366L181.16944444444445,30.018636797147906L184.29305555555555,42.06339389854844L187.41666666666666,51.91609607850998L190.5402777777778,52.0088523586446L193.6638888888889,47.565379398952985L196.7875,42.086219545165335L199.91111111111113,43.67862240844019L203.03472222222223,39.94496688331401L206.15833333333333,68.08534701701429L209.28194444444446,44.460980408221985L212.40555555555554,32.912208362119685L215.52916666666667,32.545321186142246L218.65277777777777,40.20364675690763L221.77638888888887,42.91904756060515L224.9,39.48656271980653L228.0236111111111,40.055578989305474L231.1472222222222,31.96041977188827L234.27083333333334,36.847914179088406L237.39444444444445,35.47025739041632L240.51805555555555,38.014933599664374L243.64166666666668,36.73672411337452L246.76527777777778,42.52494462427478L249.88888888888889,36.442343389648926L253.01250000000002,24.35264029610906L256.1361111111111,21.036260691337304L259.25972222222225,25.044382147224496L262.3833333333333,21.641193215618358L265.50694444444446,27.09879392291083L268.6305555555556,35.056135860206695L271.75416666666666,21.0813818992373" style="fill: none;" fill="none"></path></g><g><path stroke="rgb(255, 112, 67)" stroke-width="2px" d="M31.23611111111111,160.47252361591046L34.359722222222224,143.46874457139197L37.483333333333334,137.54929774597218L40.60694444444444,142.69342774179748L43.730555555555554,145.11135727903752L46.854166666666664,147.22145830945703L49.97777777777778,149.389560303392L53.101388888888884,136.92109780777182L56.225,129.3825871485488L59.34861111111111,110.19586218855089L62.47222222222222,107.41087603672632L65.59583333333333,106.12613540277785L68.71944444444445,106.66773006071169L71.84305555555555,96.85527158341051L74.96666666666667,93.22608527958953L78.09027777777779,89.17136970529354L81.21388888888887,79.80118270989814L84.33749999999999,72.86478440616281L87.46111111111111,69.64690754451368L90.58472222222223,64.15410487151179L93.70833333333333,75.8569117291352L96.83194444444445,75.19075710958468L99.95555555555556,78.3576574232562L103.07916666666667,64.31439316476727L106.20277777777777,65.45126777435688L109.32638888888889,72.8856654549621L112.45,70.96665403214445L115.5736111111111,61.1896177629214L118.69722222222222,76.70747285227104L121.82083333333334,56.57199794608222L124.94444444444444,57.80992772917932L128.06805555555556,66.61031130424644L131.19166666666666,63.45579985682372L134.3152777777778,44.30909948270633L137.4388888888889,48.56993476662666L140.5625,40.99750042655242L143.6861111111111,45.45769499507213L146.80972222222223,58.07917543107851L149.93333333333334,44.273400097179774L153.05694444444444,37.67955894222192L156.18055555555557,41.59365127141737L159.30416666666667,46.94332502398828L162.42777777777775,51.28015470239393L165.55138888888888,56.69266933228971L168.67499999999998,46.06377101308263L171.79861111111111,36.308929111147194L174.92222222222222,24.645302910212138L178.04583333333332,16.520018660007366L181.16944444444445,30.018636797147906L184.29305555555555,42.06339389854844L187.41666666666666,51.91609607850998L190.5402777777778,52.0088523586446L193.6638888888889,47.565379398952985L196.7875,42.086219545165335L199.91111111111113,43.67862240844019L203.03472222222223,39.94496688331401L206.15833333333333,68.08534701701429L209.28194444444446,44.460980408221985L212.40555555555554,32.912208362119685L215.52916666666667,32.545321186142246L218.65277777777777,40.20364675690763L221.77638888888887,42.91904756060515L224.9,39.48656271980653L228.0236111111111,40.055578989305474L231.1472222222222,31.96041977188827L234.27083333333334,36.847914179088406L237.39444444444445,35.47025739041632L240.51805555555555,38.014933599664374L243.64166666666668,36.73672411337452L246.76527777777778,42.52494462427478L249.88888888888889,36.442343389648926L253.01250000000002,24.35264029610906L256.1361111111111,21.036260691337304L259.25972222222225,25.044382147224496L262.3833333333333,21.641193215618358L265.50694444444446,27.09879392291083L268.6305555555556,35.056135860206695L271.75416666666666,21.0813818992373" style="fill: none;" fill="none"></path></g></g></g></g><g opacity="0.2"><g><g><g><path stroke="rgb(0, 119, 187)" stroke-width="2px" d="M31.23611111111111,160.47252361591046L34.359722222222224,133.2664771446815L37.483333333333334,131.8666287935697L40.60694444444444,148.74292461688702L43.730555555555554,148.26820608285757L46.854166666666664,150.14048767089844L49.97777777777778,152.48998084435095L53.101388888888884,118.74195979191707L56.225,118.2647482065054L59.34861111111111,81.705811720628L62.47222222222222,103.25865642841046L65.59583333333333,104.20601595365083L68.71944444444445,107.47835364708534L71.84305555555555,82.15580749511719L74.96666666666667,87.78657179612381L78.09027777777779,83.09215604341946L81.21388888888887,65.74986736591046L84.33749999999999,62.46194810133713L87.46111111111111,64.8205824631911L90.58472222222223,55.91540292593149L93.70833333333333,93.41048020582933L96.83194444444445,74.19154710036057L99.95555555555556,83.10794536884015L103.07916666666667,43.249663132887605L106.20277777777777,67.15657160832332L109.32638888888889,84.0372302715595L112.45,68.08814180814304L115.5736111111111,46.524078369140625L118.69722222222222,99.98424119215746L121.82083333333334,26.368796715369598L124.94444444444444,59.6668219933143L128.06805555555556,79.81088491586539L131.19166666666666,58.72403306227463L134.3152777777778,15.58905029296875L137.4388888888889,54.96118750939003L140.5625,29.638849111703735L143.6861111111111,52.14798677884616L146.80972222222223,77.01139596792368L149.93333333333334,23.564737173227172L153.05694444444444,27.788797231820922L156.18055555555557,47.464789757361785L159.30416666666667,54.967835646409256L162.42777777777775,57.785399216871994L165.55138888888888,64.81144127478966L168.67499999999998,30.12042353703427L171.79861111111111,21.676666259765625L174.92222222222222,7.149863609900848L178.04583333333332,4.33209228515625L181.16944444444445,50.26656400240384L184.29305555555555,60.130529550405655L187.41666666666666,66.69514934833234L190.5402777777778,52.14798677884616L193.6638888888889,40.90016995943509L196.7875,33.8674797644982L199.91111111111113,46.06722670335037L203.03472222222223,34.34448359562802L206.15833333333333,110.29591721754808L209.28194444444446,9.024430495042083L212.40555555555554,15.58905029296875L215.52916666666667,31.994990422175476L218.65277777777777,51.69113511305588L221.77638888888887,46.99214876615085L224.9,34.337835458608765L228.0236111111111,40.90910339355469L231.1472222222222,19.817680945763215L234.27083333333334,44.179155789888824L237.39444444444445,33.40377220740686L240.51805555555555,41.83194791353665L243.64166666666668,34.8194098839393L246.76527777777778,51.207275390625L249.88888888888889,27.318441537710328L253.01250000000002,6.218085655799285L256.1361111111111,16.061691284179688L259.25972222222225,31.056564331054688L262.3833333333333,16.536409818209137L265.50694444444446,35.28519498384915L268.6305555555556,46.99214876615085L271.75416666666666,0.11925095778244099" style="fill: none;" fill="none"></path></g><g><path stroke="rgb(255, 112, 67)" stroke-width="2px" d="M31.23611111111111,160.47252361591046L34.359722222222224,133.2664771446815L37.483333333333334,131.8666287935697L40.60694444444444,148.74292461688702L43.730555555555554,148.26820608285757L46.854166666666664,150.14048767089844L49.97777777777778,152.48998084435095L53.101388888888884,118.74195979191707L56.225,118.2647482065054L59.34861111111111,81.705811720628L62.47222222222222,103.25865642841046L65.59583333333333,104.20601595365083L68.71944444444445,107.47835364708534L71.84305555555555,82.15580749511719L74.96666666666667,87.78657179612381L78.09027777777779,83.09215604341946L81.21388888888887,65.74986736591046L84.33749999999999,62.46194810133713L87.46111111111111,64.8205824631911L90.58472222222223,55.91540292593149L93.70833333333333,93.41048020582933L96.83194444444445,74.19154710036057L99.95555555555556,83.10794536884015L103.07916666666667,43.249663132887605L106.20277777777777,67.15657160832332L109.32638888888889,84.0372302715595L112.45,68.08814180814304L115.5736111111111,46.524078369140625L118.69722222222222,99.98424119215746L121.82083333333334,26.368796715369598L124.94444444444444,59.6668219933143L128.06805555555556,79.81088491586539L131.19166666666666,58.72403306227463L134.3152777777778,15.58905029296875L137.4388888888889,54.96118750939003L140.5625,29.638849111703735L143.6861111111111,52.14798677884616L146.80972222222223,77.01139596792368L149.93333333333334,23.564737173227172L153.05694444444444,27.788797231820922L156.18055555555557,47.464789757361785L159.30416666666667,54.967835646409256L162.42777777777775,57.785399216871994L165.55138888888888,64.81144127478966L168.67499999999998,30.12042353703427L171.79861111111111,21.676666259765625L174.92222222222222,7.149863609900848L178.04583333333332,4.33209228515625L181.16944444444445,50.26656400240384L184.29305555555555,60.130529550405655L187.41666666666666,66.69514934833234L190.5402777777778,52.14798677884616L193.6638888888889,40.90016995943509L196.7875,33.8674797644982L199.91111111111113,46.06722670335037L203.03472222222223,34.34448359562802L206.15833333333333,110.29591721754808L209.28194444444446,9.024430495042083L212.40555555555554,15.58905029296875L215.52916666666667,31.994990422175476L218.65277777777777,51.69113511305588L221.77638888888887,46.99214876615085L224.9,34.337835458608765L228.0236111111111,40.90910339355469L231.1472222222222,19.817680945763215L234.27083333333334,44.179155789888824L237.39444444444445,33.40377220740686L240.51805555555555,41.83194791353665L243.64166666666668,34.8194098839393L246.76527777777778,51.207275390625L249.88888888888889,27.318441537710328L253.01250000000002,6.218085655799285L256.1361111111111,16.061691284179688L259.25972222222225,31.056564331054688L262.3833333333333,16.536409818209137L265.50694444444446,35.28519498384915L268.6305555555556,46.99214876615085L271.75416666666666,0.11925095778244099" style="fill: none;" fill="none"></path></g></g></g></g></g></g><g transform="translate(48, 177)" clip-path="url(#clip_1)"><clipPath id="clip_1"><rect width="281" height="23"></rect></clipPath><g><g><line x1="0" y1="0" x2="0" y2="5" style="visibility: inherit;" fill="rgb(0, 0, 0)" stroke="rgb(204, 204, 204)" stroke-width="1px"></line><line x1="31.23611111111111" y1="0" x2="31.23611111111111" y2="5" style="visibility: inherit;" fill="rgb(0, 0, 0)" stroke="rgb(204, 204, 204)" stroke-width="1px"></line><line x1="62.47222222222222" y1="0" x2="62.47222222222222" y2="5" style="visibility: inherit;" fill="rgb(0, 0, 0)" stroke="rgb(204, 204, 204)" stroke-width="1px"></line><line x1="93.70833333333333" y1="0" x2="93.70833333333333" y2="5" style="visibility: inherit;" fill="rgb(0, 0, 0)" stroke="rgb(204, 204, 204)" stroke-width="1px"></line><line x1="124.94444444444444" y1="0" x2="124.94444444444444" y2="5" style="visibility: inherit;" fill="rgb(0, 0, 0)" stroke="rgb(204, 204, 204)" stroke-width="1px"></line><line x1="156.18055555555557" y1="0" x2="156.18055555555557" y2="5" style="visibility: inherit;" fill="rgb(0, 0, 0)" stroke="rgb(204, 204, 204)" stroke-width="1px"></line><line x1="187.41666666666666" y1="0" x2="187.41666666666666" y2="5" style="visibility: inherit;" fill="rgb(0, 0, 0)" stroke="rgb(204, 204, 204)" stroke-width="1px"></line><line x1="218.65277777777777" y1="0" x2="218.65277777777777" y2="5" style="visibility: inherit;" fill="rgb(0, 0, 0)" stroke="rgb(204, 204, 204)" stroke-width="1px"></line><line x1="249.88888888888889" y1="0" x2="249.88888888888889" y2="5" style="visibility: inherit;" fill="rgb(0, 0, 0)" stroke="rgb(204, 204, 204)" stroke-width="1px"></line><line x1="281.125" y1="0" x2="281.125" y2="5" style="visibility: inherit;" fill="rgb(0, 0, 0)" stroke="rgb(204, 204, 204)" stroke-width="1px"></line></g><g transform="translate(0, 8)"><text x="0" y="0" dx="0em" dy="0.95em" style="text-anchor: middle; visibility: hidden; font-family: &quot;Helvetica Neue&quot;, sans-serif; font-size: 12px; font-weight: 200;" fill="rgb(50, 49, 63)" stroke="none" stroke-width="1px">-5k</text><text x="31.23611111111111" y="0" dx="0em" dy="0.95em" style="text-anchor: middle; visibility: inherit; font-family: &quot;Helvetica Neue&quot;, sans-serif; font-size: 12px; font-weight: 200;" fill="rgb(50, 49, 63)" stroke="none" stroke-width="1px">0</text><text x="62.47222222222222" y="0" dx="0em" dy="0.95em" style="text-anchor: middle; visibility: inherit; font-family: &quot;Helvetica Neue&quot;, sans-serif; font-size: 12px; font-weight: 200;" fill="rgb(50, 49, 63)" stroke="none" stroke-width="1px">5k</text><text x="93.70833333333333" y="0" dx="0em" dy="0.95em" style="text-anchor: middle; visibility: inherit; font-family: &quot;Helvetica Neue&quot;, sans-serif; font-size: 12px; font-weight: 200;" fill="rgb(50, 49, 63)" stroke="none" stroke-width="1px">10k</text><text x="124.94444444444444" y="0" dx="0em" dy="0.95em" style="text-anchor: middle; visibility: inherit; font-family: &quot;Helvetica Neue&quot;, sans-serif; font-size: 12px; font-weight: 200;" fill="rgb(50, 49, 63)" stroke="none" stroke-width="1px">15k</text><text x="156.18055555555557" y="0" dx="0em" dy="0.95em" style="text-anchor: middle; visibility: inherit; font-family: &quot;Helvetica Neue&quot;, sans-serif; font-size: 12px; font-weight: 200;" fill="rgb(50, 49, 63)" stroke="none" stroke-width="1px">20k</text><text x="187.41666666666666" y="0" dx="0em" dy="0.95em" style="text-anchor: middle; visibility: inherit; font-family: &quot;Helvetica Neue&quot;, sans-serif; font-size: 12px; font-weight: 200;" fill="rgb(50, 49, 63)" stroke="none" stroke-width="1px">25k</text><text x="218.65277777777777" y="0" dx="0em" dy="0.95em" style="text-anchor: middle; visibility: inherit; font-family: &quot;Helvetica Neue&quot;, sans-serif; font-size: 12px; font-weight: 200;" fill="rgb(50, 49, 63)" stroke="none" stroke-width="1px">30k</text><text x="249.88888888888889" y="0" dx="0em" dy="0.95em" style="text-anchor: middle; visibility: inherit; font-family: &quot;Helvetica Neue&quot;, sans-serif; font-size: 12px; font-weight: 200;" fill="rgb(50, 49, 63)" stroke="none" stroke-width="1px">35k</text><text x="281.125" y="0" dx="0em" dy="0.95em" style="text-anchor: middle; visibility: hidden; font-family: &quot;Helvetica Neue&quot;, sans-serif; font-size: 12px; font-weight: 200;" fill="rgb(50, 49, 63)" stroke="none" stroke-width="1px">40k</text></g><line x1="0" y1="0" x2="281.125" y2="0" fill="rgb(0, 0, 0)" stroke="rgb(204, 204, 204)" stroke-width="1px"></line></g></g></g></g></svg>