<svg viewBox="0 0 330 200" xmlns="http://www.w3.org/2000/svg"><g><g><g><g><g><line x1="29.4375" y1="177" x2="24.4375" y2="177" style="visibility: inherit;" fill="rgb(0, 0, 0)" stroke="rgb(204, 204, 204)" stroke-width="1px"></line><line x1="29.4375" y1="154.875" x2="24.4375" y2="154.875" style="visibility: inherit;" fill="rgb(0, 0, 0)" stroke="rgb(204, 204, 204)" stroke-width="1px"></line><line x1="29.4375" y1="132.75" x2="24.4375" y2="132.75" style="visibility: inherit;" fill="rgb(0, 0, 0)" stroke="rgb(204, 204, 204)" stroke-width="1px"></line><line x1="29.4375" y1="110.625" x2="24.4375" y2="110.625" style="visibility: inherit;" fill="rgb(0, 0, 0)" stroke="rgb(204, 204, 204)" stroke-width="1px"></line><line x1="29.4375" y1="88.5" x2="24.4375" y2="88.5" style="visibility: inherit;" fill="rgb(0, 0, 0)" stroke="rgb(204, 204, 204)" stroke-width="1px"></line><line x1="29.4375" y1="66.375" x2="24.4375" y2="66.375" style="visibility: inherit;" fill="rgb(0, 0, 0)" stroke="rgb(204, 204, 204)" stroke-width="1px"></line><line x1="29.4375" y1="44.25" x2="24.4375" y2="44.25" style="visibility: inherit;" fill="rgb(0, 0, 0)" stroke="rgb(204, 204, 204)" stroke-width="1px"></line><line x1="29.4375" y1="22.125" x2="24.4375" y2="22.125" style="visibility: inherit;" fill="rgb(0, 0, 0)" stroke="rgb(204, 204, 204)" stroke-width="1px"></line><line x1="29.4375" y1="0" x2="24.4375" y2="0" style="visibility: inherit;" fill="rgb(0, 0, 0)" stroke="rgb(204, 204, 204)" stroke-width="1px"></line></g><g transform="translate(19.4375, 0)"><text x="0" y="177" dx="0em" dy="0.3em" style="text-anchor: end; visibility: hidden; font-family: &quot;Helvetica Neue&quot;, sans-serif; font-size: 12px; font-weight: 200;" fill="rgb(50, 49, 63)" stroke="none" stroke-width="1px">75</text><text x="0" y="154.875" dx="0em" dy="0.3em" style="text-anchor: end; visibility: inherit; font-family: &quot;Helvetica Neue&quot;, sans-serif; font-size: 12px; font-weight: 200;" fill="rgb(50, 49, 63)" stroke="none" stroke-width="1px">76</text><text x="0" y="132.75" dx="0em" dy="0.3em" style="text-anchor: end; visibility: hidden; font-family: &quot;Helvetica Neue&quot;, sans-serif; font-size: 12px; font-weight: 200;" fill="rgb(50, 49, 63)" stroke="none" stroke-width="1px">77</text><text x="0" y="110.625" dx="0em" dy="0.3em" style="text-anchor: end; visibility: inherit; font-family: &quot;Helvetica Neue&quot;, sans-serif; font-size: 12px; font-weight: 200;" fill="rgb(50, 49, 63)" stroke="none" stroke-width="1px">78</text><text x="0" y="88.5" dx="0em" dy="0.3em" style="text-anchor: end; visibility: hidden; font-family: &quot;Helvetica Neue&quot;, sans-serif; font-size: 12px; font-weight: 200;" fill="rgb(50, 49, 63)" stroke="none" stroke-width="1px">79</text><text x="0" y="66.375" dx="0em" dy="0.3em" style="text-anchor: end; visibility: inherit; font-family: &quot;Helvetica Neue&quot;, sans-serif; font-size: 12px; font-weight: 200;" fill="rgb(50, 49, 63)" stroke="none" stroke-width="1px">80</text><text x="0" y="44.25" dx="0em" dy="0.3em" style="text-anchor: end; visibility: hidden; font-family: &quot;Helvetica Neue&quot;, sans-serif; font-size: 12px; font-weight: 200;" fill="rgb(50, 49, 63)" stroke="none" stroke-width="1px">81</text><text x="0" y="22.125" dx="0em" dy="0.3em" style="text-anchor: end; visibility: inherit; font-family: &quot;Helvetica Neue&quot;, sans-serif; font-size: 12px; font-weight: 200;" fill="rgb(50, 49, 63)" stroke="none" stroke-width="1px">82</text><text x="0" y="0" dx="0em" dy="0.3em" style="text-anchor: end; visibility: hidden; font-family: &quot;Helvetica Neue&quot;, sans-serif; font-size: 12px; font-weight: 200;" fill="rgb(50, 49, 63)" stroke="none" stroke-width="1px">83</text></g><line x1="29.4375" y1="0" x2="29.4375" y2="177" fill="rgb(0, 0, 0)" stroke="rgb(204, 204, 204)" stroke-width="1px"></line></g></g><g transform="translate(29, 0)" clip-path="url(#clip_0)"><clipPath id="clip_0"><rect width="300" height="177"></rect></clipPath><g><g><g><line x1="0" y1="0" x2="0" y2="177" fill="rgb(0, 0, 0)" stroke="rgb(60, 60, 60)" stroke-width="1px" opacity="0.25"></line><line x1="33.39583333333333" y1="0" x2="33.39583333333333" y2="177" fill="rgb(0, 0, 0)" stroke="rgb(60, 60, 60)" stroke-width="1px" opacity="0.25"></line><line x1="66.79166666666666" y1="0" x2="66.79166666666666" y2="177" fill="rgb(0, 0, 0)" stroke="rgb(60, 60, 60)" stroke-width="1px" opacity="0.25"></line><line x1="100.1875" y1="0" x2="100.1875" y2="177" fill="rgb(0, 0, 0)" stroke="rgb(60, 60, 60)" stroke-width="1px" opacity="0.25"></line><line x1="133.58333333333331" y1="0" x2="133.58333333333331" y2="177" fill="rgb(0, 0, 0)" stroke="rgb(60, 60, 60)" stroke-width="1px" opacity="0.25"></line><line x1="166.97916666666669" y1="0" x2="166.97916666666669" y2="177" fill="rgb(0, 0, 0)" stroke="rgb(60, 60, 60)" stroke-width="1px" opacity="0.25"></line><line x1="200.375" y1="0" x2="200.375" y2="177" fill="rgb(0, 0, 0)" stroke="rgb(60, 60, 60)" stroke-width="1px" opacity="0.25"></line><line x1="233.77083333333334" y1="0" x2="233.77083333333334" y2="177" fill="rgb(0, 0, 0)" stroke="rgb(60, 60, 60)" stroke-width="1px" opacity="0.25"></line><line x1="267.16666666666663" y1="0" x2="267.16666666666663" y2="177" fill="rgb(0, 0, 0)" stroke="rgb(60, 60, 60)" stroke-width="1px" opacity="0.25"></line><line x1="300.5625" y1="0" x2="300.5625" y2="177" fill="rgb(0, 0, 0)" stroke="rgb(60, 60, 60)" stroke-width="1px" opacity="0.25"></line></g><g><line x1="0" y1="177" x2="300.5625" y2="177" fill="rgb(0, 0, 0)" stroke="rgb(60, 60, 60)" stroke-width="1px" opacity="0.25"></line><line x1="0" y1="154.875" x2="300.5625" y2="154.875" fill="rgb(0, 0, 0)" stroke="rgb(60, 60, 60)" stroke-width="1px" opacity="0.25"></line><line x1="0" y1="132.75" x2="300.5625" y2="132.75" fill="rgb(0, 0, 0)" stroke="rgb(60, 60, 60)" stroke-width="1px" opacity="0.25"></line><line x1="0" y1="110.625" x2="300.5625" y2="110.625" fill="rgb(0, 0, 0)" stroke="rgb(60, 60, 60)" stroke-width="1px" opacity="0.25"></line><line x1="0" y1="88.5" x2="300.5625" y2="88.5" fill="rgb(0, 0, 0)" stroke="rgb(60, 60, 60)" stroke-width="1px" opacity="0.25"></line><line x1="0" y1="66.375" x2="300.5625" y2="66.375" fill="rgb(0, 0, 0)" stroke="rgb(60, 60, 60)" stroke-width="1px" opacity="0.25"></line><line x1="0" y1="44.25" x2="300.5625" y2="44.25" fill="rgb(0, 0, 0)" stroke="rgb(60, 60, 60)" stroke-width="1px" opacity="0.25"></line><line x1="0" y1="22.125" x2="300.5625" y2="22.125" fill="rgb(0, 0, 0)" stroke="rgb(60, 60, 60)" stroke-width="1px" opacity="0.25"></line><line x1="0" y1="0" x2="300.5625" y2="0" fill="rgb(0, 0, 0)" stroke="rgb(60, 60, 60)" stroke-width="1px" opacity="0.25"></line></g></g></g><g><g><line x1="0" y1="1836.375" x2="300.5625" y2="1836.375" fill="rgb(0, 0, 0)" stroke="rgb(153, 153, 153)" stroke-width="1.5px"></line></g></g><g><g><line x1="33.39583333333333" y1="0" x2="33.39583333333333" y2="177" fill="rgb(0, 0, 0)" stroke="rgb(153, 153, 153)" stroke-width="1.5px"></line></g></g><g><g><g><g><g><path stroke="rgb(0, 119, 187)" stroke-width="2px" d="M33.39583333333333,140.05483531951904L36.735416666666666,149.09799778461456L40.075,147.7839279369432L43.414583333333326,147.20419123944137L46.75416666666667,155.9939545870326L50.09375,144.82585641380004L53.43333333333334,157.75391367554352L56.77291666666667,157.6754788141502L60.112500000000004,143.46993491349875L63.452083333333334,121.24147983796252L66.79166666666666,101.41940420223203L70.13125,104.99240776698997L73.47083333333333,101.48761092669609L76.81041666666665,95.1202210760372L80.15,94.19636523940872L83.48958333333334,93.03359905519879L86.82916666666665,94.32009185401864L90.16875,86.24972776563688L93.50833333333334,77.59493915422104L96.84791666666668,84.596851909328L100.1875,93.36992736415809L103.52708333333334,92.6895030809207L106.86666666666667,68.81538899410357L110.20625,68.81489944028527L113.54583333333333,79.63284859374029L116.88541666666667,82.92442111566989L120.22500000000001,84.75095161220258L123.56458333333333,70.29717311428891L126.90416666666667,69.0918318668401L130.24375,70.5050326753236L133.58333333333331,78.36127450775402L136.92291666666665,87.79920106369542L140.2625,84.77575996527763L143.60208333333335,80.98396287431139L146.94166666666666,65.6035625798156L150.28125,50.42976892214239L153.6208333333333,51.53811686856737L156.96041666666667,69.87895348697306L160.3,59.089776700715035L163.63958333333332,52.31128216432187L166.97916666666669,40.17167987235271L170.31875,41.87174342837989L173.6583333333333,51.884451623273534L176.99791666666667,47.991733213890484L180.3375,45.656102168691945L183.67708333333334,48.06171168588713L187.01666666666668,30.46000865455008L190.35625,39.70689813727395L193.69583333333335,47.233507016010776L197.03541666666666,55.56442786384862L200.375,47.45624056531571L203.71458333333334,65.44919180323119L207.05416666666667,45.00589127208849L210.39374999999998,60.01622511666224L213.73333333333335,71.15592685772405L217.07291666666666,74.48696775098823L220.4125,89.89448472774484L223.75208333333333,57.230931025241134L227.09166666666667,46.62472614138866L230.43125,39.65244417482319L233.77083333333334,38.213296109996264L237.11041666666665,48.168762120343644L240.45000000000002,44.997991509876954L243.78958333333333,39.74355923392898L247.12916666666666,47.407626552930566L250.46875,47.28411336156779L253.80833333333334,45.68722369321014L257.1479166666667,35.58503967552119L260.4875,47.50677369850112L263.82708333333335,49.17062916050686L267.16666666666663,55.80883234554747L270.50625,51.71850596555602L273.8458333333333,44.07937094383519L277.1854166666667,39.19454753883559L280.525,39.76565316014231L283.8645833333333,30.36232425387334L287.2041666666667,32.94495535859829L290.54375,19.10358782392356" style="fill: none;" fill="none"></path></g><g><path stroke="rgb(255, 112, 67)" stroke-width="2px" d="M33.39583333333333,140.05483531951904L36.735416666666666,149.09799778461456L40.075,147.7839279369432L43.414583333333326,147.20419123944137L46.75416666666667,155.9939545870326L50.09375,144.82585641380004L53.43333333333334,157.75391367554352L56.77291666666667,157.6754788141502L60.112500000000004,143.46993491349875L63.452083333333334,121.24147983796252L66.79166666666666,101.41940420223203L70.13125,104.99240776698997L73.47083333333333,101.48761092669609L76.81041666666665,95.1202210760372L80.15,94.19636523940872L83.48958333333334,93.03359905519879L86.82916666666665,94.32009185401864L90.16875,86.24972776563688L93.50833333333334,77.59493915422104L96.84791666666668,84.596851909328L100.1875,93.36992736415809L103.52708333333334,92.6895030809207L106.86666666666667,68.81538899410357L110.20625,68.81489944028527L113.54583333333333,79.63284859374029L116.88541666666667,82.92442111566989L120.22500000000001,84.75095161220258L123.56458333333333,70.29717311428891L126.90416666666667,69.0918318668401L130.24375,70.5050326753236L133.58333333333331,78.36127450775402L136.92291666666665,87.79920106369542L140.2625,84.77575996527763L143.60208333333335,80.98396287431139L146.94166666666666,65.6035625798156L150.28125,50.42976892214239L153.6208333333333,51.53811686856737L156.96041666666667,69.87895348697306L160.3,59.089776700715035L163.63958333333332,52.31128216432187L166.97916666666669,40.17167987235271L170.31875,41.87174342837989L173.6583333333333,51.884451623273534L176.99791666666667,47.991733213890484L180.3375,45.656102168691945L183.67708333333334,48.06171168588713L187.01666666666668,30.46000865455008L190.35625,39.70689813727395L193.69583333333335,47.233507016010776L197.03541666666666,55.56442786384862L200.375,47.45624056531571L203.71458333333334,65.44919180323119L207.05416666666667,45.00589127208849L210.39374999999998,60.01622511666224L213.73333333333335,71.15592685772405L217.07291666666666,74.48696775098823L220.4125,89.89448472774484L223.75208333333333,57.230931025241134L227.09166666666667,46.62472614138866L230.43125,39.65244417482319L233.77083333333334,38.213296109996264L237.11041666666665,48.168762120343644L240.45000000000002,44.997991509876954L243.78958333333333,39.74355923392898L247.12916666666666,47.407626552930566L250.46875,47.28411336156779L253.80833333333334,45.68722369321014L257.1479166666667,35.58503967552119L260.4875,47.50677369850112L263.82708333333335,49.17062916050686L267.16666666666663,55.80883234554747L270.50625,51.71850596555602L273.8458333333333,44.07937094383519L277.1854166666667,39.19454753883559L280.525,39.76565316014231L283.8645833333333,30.36232425387334L287.2041666666667,32.94495535859829L290.54375,19.10358782392356" style="fill: none;" fill="none"></path></g></g></g></g><g opacity="0.2"><g><g><g><path stroke="rgb(0, 119, 187)" stroke-width="2px" d="M33.39583333333333,140.05483531951904L36.735416666666666,154.52389526367188L40.075,146.5224208831787L43.414583333333326,146.5224208831787L46.75416666666667,167.46986961364746L50.09375,129.37635612487793L53.43333333333334,176.24124240875244L56.77291666666667,157.56112003326416L60.112500000000004,122.51951694488525L63.452083333333334,88.23481464385986L66.79166666666666,71.86607551574707L70.13125,110.33246898651123L73.47083333333333,96.24185943603516L76.81041666666665,85.58161067962646L80.15,92.81166744232178L83.48958333333334,91.29026985168457L86.82916666666665,96.24928665161133L90.16875,74.14623069763184L93.50833333333334,64.61407470703125L96.84791666666668,95.09908103942871L100.1875,106.52905941009521L103.52708333333334,91.66888904571533L106.86666666666667,33.00468921661377L110.20625,68.81416511535645L113.54583333333333,95.85969543457031L116.88541666666667,87.86176586151123L120.22500000000001,87.49074268341064L123.56458333333333,48.61652755737305L126.90416666666667,67.28382110595703L130.24375,72.62483310699463L133.58333333333331,90.14563465118408L136.92291666666665,101.95608901977539L140.2625,80.24059867858887L143.60208333333335,75.29626750946045L146.94166666666666,42.532962799072266L150.28125,27.669078826904297L153.6208333333333,53.20063877105713L156.96041666666667,97.39020824432373L160.3,42.9060115814209L163.63958333333332,42.143540382385254L166.97916666666669,21.962276458740234L170.31875,44.42183876037598L173.6583333333333,66.90351390838623L176.99791666666667,42.152655601501465L180.3375,42.152655601501465L183.67708333333334,51.67012596130371L187.01666666666668,4.0574541091918945L190.35625,53.577232360839844L193.69583333333335,58.523420333862305L197.03541666666666,68.06080913543701L200.375,35.293959617614746L203.71458333333334,92.43861865997314L207.05416666666667,14.340940475463867L210.39374999999998,82.53172588348389L213.73333333333335,87.86547946929932L217.07291666666666,79.48352909088135L220.4125,113.0057601928711L223.75208333333333,8.235600471496582L227.09166666666667,30.715418815612793L230.43125,29.194021224975586L233.77083333333334,36.05457401275635L237.11041666666665,63.10196113586426L240.45000000000002,40.241835594177246L243.78958333333333,31.861910820007324L247.12916666666666,58.903727531433105L250.46875,47.098843574523926L253.80833333333334,43.29188919067383L257.1479166666667,20.431763648986816L260.4875,65.38937473297119L263.82708333333335,51.666412353515625L267.16666666666663,65.76613712310791L270.50625,45.58301639556885L273.8458333333333,32.62066841125488L277.1854166666667,31.86731243133545L280.525,40.62231159210205L283.8645833333333,16.257330894470215L287.2041666666667,36.818902015686035L290.54375,-1.658463478088379" style="fill: none;" fill="none"></path></g><g><path stroke="rgb(255, 112, 67)" stroke-width="2px" d="M33.39583333333333,140.05483531951904L36.735416666666666,154.52389526367188L40.075,146.5224208831787L43.414583333333326,146.5224208831787L46.75416666666667,167.46986961364746L50.09375,129.37635612487793L53.43333333333334,176.24124240875244L56.77291666666667,157.56112003326416L60.112500000000004,122.51951694488525L63.452083333333334,88.23481464385986L66.79166666666666,71.86607551574707L70.13125,110.33246898651123L73.47083333333333,96.24185943603516L76.81041666666665,85.58161067962646L80.15,92.81166744232178L83.48958333333334,91.29026985168457L86.82916666666665,96.24928665161133L90.16875,74.14623069763184L93.50833333333334,64.61407470703125L96.84791666666668,95.09908103942871L100.1875,106.52905941009521L103.52708333333334,91.66888904571533L106.86666666666667,33.00468921661377L110.20625,68.81416511535645L113.54583333333333,95.85969543457031L116.88541666666667,87.86176586151123L120.22500000000001,87.49074268341064L123.56458333333333,48.61652755737305L126.90416666666667,67.28382110595703L130.24375,72.62483310699463L133.58333333333331,90.14563465118408L136.92291666666665,101.95608901977539L140.2625,80.24059867858887L143.60208333333335,75.29626750946045L146.94166666666666,42.532962799072266L150.28125,27.669078826904297L153.6208333333333,53.20063877105713L156.96041666666667,97.39020824432373L160.3,42.9060115814209L163.63958333333332,42.143540382385254L166.97916666666669,21.962276458740234L170.31875,44.42183876037598L173.6583333333333,66.90351390838623L176.99791666666667,42.152655601501465L180.3375,42.152655601501465L183.67708333333334,51.67012596130371L187.01666666666668,4.0574541091918945L190.35625,53.577232360839844L193.69583333333335,58.523420333862305L197.03541666666666,68.06080913543701L200.375,35.293959617614746L203.71458333333334,92.43861865997314L207.05416666666667,14.340940475463867L210.39374999999998,82.53172588348389L213.73333333333335,87.86547946929932L217.07291666666666,79.48352909088135L220.4125,113.0057601928711L223.75208333333333,8.235600471496582L227.09166666666667,30.715418815612793L230.43125,29.194021224975586L233.77083333333334,36.05457401275635L237.11041666666665,63.10196113586426L240.45000000000002,40.241835594177246L243.78958333333333,31.861910820007324L247.12916666666666,58.903727531433105L250.46875,47.098843574523926L253.80833333333334,43.29188919067383L257.1479166666667,20.431763648986816L260.4875,65.38937473297119L263.82708333333335,51.666412353515625L267.16666666666663,65.76613712310791L270.50625,45.58301639556885L273.8458333333333,32.62066841125488L277.1854166666667,31.86731243133545L280.525,40.62231159210205L283.8645833333333,16.257330894470215L287.2041666666667,36.818902015686035L290.54375,-1.658463478088379" style="fill: none;" fill="none"></path></g></g></g></g></g></g><g transform="translate(29, 177)" clip-path="url(#clip_1)"><clipPath id="clip_1"><rect width="300" height="23"></rect></clipPath><g><g><line x1="0" y1="0" x2="0" y2="5" style="visibility: inherit;" fill="rgb(0, 0, 0)" stroke="rgb(204, 204, 204)" stroke-width="1px"></line><line x1="33.39583333333333" y1="0" x2="33.39583333333333" y2="5" style="visibility: inherit;" fill="rgb(0, 0, 0)" stroke="rgb(204, 204, 204)" stroke-width="1px"></line><line x1="66.79166666666666" y1="0" x2="66.79166666666666" y2="5" style="visibility: inherit;" fill="rgb(0, 0, 0)" stroke="rgb(204, 204, 204)" stroke-width="1px"></line><line x1="100.1875" y1="0" x2="100.1875" y2="5" style="visibility: inherit;" fill="rgb(0, 0, 0)" stroke="rgb(204, 204, 204)" stroke-width="1px"></line><line x1="133.58333333333331" y1="0" x2="133.58333333333331" y2="5" style="visibility: inherit;" fill="rgb(0, 0, 0)" stroke="rgb(204, 204, 204)" stroke-width="1px"></line><line x1="166.97916666666669" y1="0" x2="166.97916666666669" y2="5" style="visibility: inherit;" fill="rgb(0, 0, 0)" stroke="rgb(204, 204, 204)" stroke-width="1px"></line><line x1="200.375" y1="0" x2="200.375" y2="5" style="visibility: inherit;" fill="rgb(0, 0, 0)" stroke="rgb(204, 204, 204)" stroke-width="1px"></line><line x1="233.77083333333334" y1="0" x2="233.77083333333334" y2="5" style="visibility: inherit;" fill="rgb(0, 0, 0)" stroke="rgb(204, 204, 204)" stroke-width="1px"></line><line x1="267.16666666666663" y1="0" x2="267.16666666666663" y2="5" style="visibility: inherit;" fill="rgb(0, 0, 0)" stroke="rgb(204, 204, 204)" stroke-width="1px"></line><line x1="300.5625" y1="0" x2="300.5625" y2="5" style="visibility: inherit;" fill="rgb(0, 0, 0)" stroke="rgb(204, 204, 204)" stroke-width="1px"></line></g><g transform="translate(0, 8)"><text x="0" y="0" dx="0em" dy="0.95em" style="text-anchor: middle; visibility: hidden; font-family: &quot;Helvetica Neue&quot;, sans-serif; font-size: 12px; font-weight: 200;" fill="rgb(50, 49, 63)" stroke="none" stroke-width="1px">-5k</text><text x="33.39583333333333" y="0" dx="0em" dy="0.95em" style="text-anchor: middle; visibility: inherit; font-family: &quot;Helvetica Neue&quot;, sans-serif; font-size: 12px; font-weight: 200;" fill="rgb(50, 49, 63)" stroke="none" stroke-width="1px">0</text><text x="66.79166666666666" y="0" dx="0em" dy="0.95em" style="text-anchor: middle; visibility: inherit; font-family: &quot;Helvetica Neue&quot;, sans-serif; font-size: 12px; font-weight: 200;" fill="rgb(50, 49, 63)" stroke="none" stroke-width="1px">5k</text><text x="100.1875" y="0" dx="0em" dy="0.95em" style="text-anchor: middle; visibility: inherit; font-family: &quot;Helvetica Neue&quot;, sans-serif; font-size: 12px; font-weight: 200;" fill="rgb(50, 49, 63)" stroke="none" stroke-width="1px">10k</text><text x="133.58333333333331" y="0" dx="0em" dy="0.95em" style="text-anchor: middle; visibility: inherit; font-family: &quot;Helvetica Neue&quot;, sans-serif; font-size: 12px; font-weight: 200;" fill="rgb(50, 49, 63)" stroke="none" stroke-width="1px">15k</text><text x="166.97916666666669" y="0" dx="0em" dy="0.95em" style="text-anchor: middle; visibility: inherit; font-family: &quot;Helvetica Neue&quot;, sans-serif; font-size: 12px; font-weight: 200;" fill="rgb(50, 49, 63)" stroke="none" stroke-width="1px">20k</text><text x="200.375" y="0" dx="0em" dy="0.95em" style="text-anchor: middle; visibility: inherit; font-family: &quot;Helvetica Neue&quot;, sans-serif; font-size: 12px; font-weight: 200;" fill="rgb(50, 49, 63)" stroke="none" stroke-width="1px">25k</text><text x="233.77083333333334" y="0" dx="0em" dy="0.95em" style="text-anchor: middle; visibility: inherit; font-family: &quot;Helvetica Neue&quot;, sans-serif; font-size: 12px; font-weight: 200;" fill="rgb(50, 49, 63)" stroke="none" stroke-width="1px">30k</text><text x="267.16666666666663" y="0" dx="0em" dy="0.95em" style="text-anchor: middle; visibility: inherit; font-family: &quot;Helvetica Neue&quot;, sans-serif; font-size: 12px; font-weight: 200;" fill="rgb(50, 49, 63)" stroke="none" stroke-width="1px">35k</text><text x="300.5625" y="0" dx="0em" dy="0.95em" style="text-anchor: middle; visibility: hidden; font-family: &quot;Helvetica Neue&quot;, sans-serif; font-size: 12px; font-weight: 200;" fill="rgb(50, 49, 63)" stroke="none" stroke-width="1px">40k</text></g><line x1="0" y1="0" x2="300.5625" y2="0" fill="rgb(0, 0, 0)" stroke="rgb(204, 204, 204)" stroke-width="1px"></line></g></g></g></g></svg>