<svg viewBox="0 0 330 200" xmlns="http://www.w3.org/2000/svg"><g><g><g><g><g><line x1="48.875" y1="177" x2="43.875" y2="177" style="visibility: inherit;" fill="rgb(0, 0, 0)" stroke="rgb(204, 204, 204)" stroke-width="1px"></line><line x1="48.875" y1="154.875" x2="43.875" y2="154.875" style="visibility: inherit;" fill="rgb(0, 0, 0)" stroke="rgb(204, 204, 204)" stroke-width="1px"></line><line x1="48.875" y1="132.75" x2="43.875" y2="132.75" style="visibility: inherit;" fill="rgb(0, 0, 0)" stroke="rgb(204, 204, 204)" stroke-width="1px"></line><line x1="48.875" y1="110.625" x2="43.875" y2="110.625" style="visibility: inherit;" fill="rgb(0, 0, 0)" stroke="rgb(204, 204, 204)" stroke-width="1px"></line><line x1="48.875" y1="88.5" x2="43.875" y2="88.5" style="visibility: inherit;" fill="rgb(0, 0, 0)" stroke="rgb(204, 204, 204)" stroke-width="1px"></line><line x1="48.875" y1="66.375" x2="43.875" y2="66.375" style="visibility: inherit;" fill="rgb(0, 0, 0)" stroke="rgb(204, 204, 204)" stroke-width="1px"></line><line x1="48.875" y1="44.25" x2="43.875" y2="44.25" style="visibility: inherit;" fill="rgb(0, 0, 0)" stroke="rgb(204, 204, 204)" stroke-width="1px"></line><line x1="48.875" y1="22.125" x2="43.875" y2="22.125" style="visibility: inherit;" fill="rgb(0, 0, 0)" stroke="rgb(204, 204, 204)" stroke-width="1px"></line><line x1="48.875" y1="0" x2="43.875" y2="0" style="visibility: inherit;" fill="rgb(0, 0, 0)" stroke="rgb(204, 204, 204)" stroke-width="1px"></line></g><g transform="translate(38.875, 0)"><text x="0" y="177" dx="0em" dy="0.3em" style="text-anchor: end; visibility: hidden; font-family: &quot;Helvetica Neue&quot;, sans-serif; font-size: 12px; font-weight: 200;" fill="rgb(50, 49, 63)" stroke="none" stroke-width="1px">90.5</text><text x="0" y="154.875" dx="0em" dy="0.3em" style="text-anchor: end; visibility: inherit; font-family: &quot;Helvetica Neue&quot;, sans-serif; font-size: 12px; font-weight: 200;" fill="rgb(50, 49, 63)" stroke="none" stroke-width="1px">91</text><text x="0" y="132.75" dx="0em" dy="0.3em" style="text-anchor: end; visibility: hidden; font-family: &quot;Helvetica Neue&quot;, sans-serif; font-size: 12px; font-weight: 200;" fill="rgb(50, 49, 63)" stroke="none" stroke-width="1px">91.5</text><text x="0" y="110.625" dx="0em" dy="0.3em" style="text-anchor: end; visibility: inherit; font-family: &quot;Helvetica Neue&quot;, sans-serif; font-size: 12px; font-weight: 200;" fill="rgb(50, 49, 63)" stroke="none" stroke-width="1px">92</text><text x="0" y="88.5" dx="0em" dy="0.3em" style="text-anchor: end; visibility: hidden; font-family: &quot;Helvetica Neue&quot;, sans-serif; font-size: 12px; font-weight: 200;" fill="rgb(50, 49, 63)" stroke="none" stroke-width="1px">92.5</text><text x="0" y="66.375" dx="0em" dy="0.3em" style="text-anchor: end; visibility: inherit; font-family: &quot;Helvetica Neue&quot;, sans-serif; font-size: 12px; font-weight: 200;" fill="rgb(50, 49, 63)" stroke="none" stroke-width="1px">93</text><text x="0" y="44.25" dx="0em" dy="0.3em" style="text-anchor: end; visibility: hidden; font-family: &quot;Helvetica Neue&quot;, sans-serif; font-size: 12px; font-weight: 200;" fill="rgb(50, 49, 63)" stroke="none" stroke-width="1px">93.5</text><text x="0" y="22.125" dx="0em" dy="0.3em" style="text-anchor: end; visibility: inherit; font-family: &quot;Helvetica Neue&quot;, sans-serif; font-size: 12px; font-weight: 200;" fill="rgb(50, 49, 63)" stroke="none" stroke-width="1px">94</text><text x="0" y="0" dx="0em" dy="0.3em" style="text-anchor: end; visibility: hidden; font-family: &quot;Helvetica Neue&quot;, sans-serif; font-size: 12px; font-weight: 200;" fill="rgb(50, 49, 63)" stroke="none" stroke-width="1px">94.5</text></g><line x1="48.875" y1="0" x2="48.875" y2="177" fill="rgb(0, 0, 0)" stroke="rgb(204, 204, 204)" stroke-width="1px"></line></g></g><g transform="translate(48, 0)" clip-path="url(#clip_0)"><clipPath id="clip_0"><rect width="281" height="177"></rect></clipPath><g><g><g><line x1="0" y1="0" x2="0" y2="177" fill="rgb(0, 0, 0)" stroke="rgb(60, 60, 60)" stroke-width="1px" opacity="0.25"></line><line x1="31.23611111111111" y1="0" x2="31.23611111111111" y2="177" fill="rgb(0, 0, 0)" stroke="rgb(60, 60, 60)" stroke-width="1px" opacity="0.25"></line><line x1="62.47222222222222" y1="0" x2="62.47222222222222" y2="177" fill="rgb(0, 0, 0)" stroke="rgb(60, 60, 60)" stroke-width="1px" opacity="0.25"></line><line x1="93.70833333333333" y1="0" x2="93.70833333333333" y2="177" fill="rgb(0, 0, 0)" stroke="rgb(60, 60, 60)" stroke-width="1px" opacity="0.25"></line><line x1="124.94444444444444" y1="0" x2="124.94444444444444" y2="177" fill="rgb(0, 0, 0)" stroke="rgb(60, 60, 60)" stroke-width="1px" opacity="0.25"></line><line x1="156.18055555555557" y1="0" x2="156.18055555555557" y2="177" fill="rgb(0, 0, 0)" stroke="rgb(60, 60, 60)" stroke-width="1px" opacity="0.25"></line><line x1="187.41666666666666" y1="0" x2="187.41666666666666" y2="177" fill="rgb(0, 0, 0)" stroke="rgb(60, 60, 60)" stroke-width="1px" opacity="0.25"></line><line x1="218.65277777777777" y1="0" x2="218.65277777777777" y2="177" fill="rgb(0, 0, 0)" stroke="rgb(60, 60, 60)" stroke-width="1px" opacity="0.25"></line><line x1="249.88888888888889" y1="0" x2="249.88888888888889" y2="177" fill="rgb(0, 0, 0)" stroke="rgb(60, 60, 60)" stroke-width="1px" opacity="0.25"></line><line x1="281.125" y1="0" x2="281.125" y2="177" fill="rgb(0, 0, 0)" stroke="rgb(60, 60, 60)" stroke-width="1px" opacity="0.25"></line></g><g><line x1="0" y1="177" x2="281.125" y2="177" fill="rgb(0, 0, 0)" stroke="rgb(60, 60, 60)" stroke-width="1px" opacity="0.25"></line><line x1="0" y1="154.875" x2="281.125" y2="154.875" fill="rgb(0, 0, 0)" stroke="rgb(60, 60, 60)" stroke-width="1px" opacity="0.25"></line><line x1="0" y1="132.75" x2="281.125" y2="132.75" fill="rgb(0, 0, 0)" stroke="rgb(60, 60, 60)" stroke-width="1px" opacity="0.25"></line><line x1="0" y1="110.625" x2="281.125" y2="110.625" fill="rgb(0, 0, 0)" stroke="rgb(60, 60, 60)" stroke-width="1px" opacity="0.25"></line><line x1="0" y1="88.5" x2="281.125" y2="88.5" fill="rgb(0, 0, 0)" stroke="rgb(60, 60, 60)" stroke-width="1px" opacity="0.25"></line><line x1="0" y1="66.375" x2="281.125" y2="66.375" fill="rgb(0, 0, 0)" stroke="rgb(60, 60, 60)" stroke-width="1px" opacity="0.25"></line><line x1="0" y1="44.25" x2="281.125" y2="44.25" fill="rgb(0, 0, 0)" stroke="rgb(60, 60, 60)" stroke-width="1px" opacity="0.25"></line><line x1="0" y1="22.125" x2="281.125" y2="22.125" fill="rgb(0, 0, 0)" stroke="rgb(60, 60, 60)" stroke-width="1px" opacity="0.25"></line><line x1="0" y1="0" x2="281.125" y2="0" fill="rgb(0, 0, 0)" stroke="rgb(60, 60, 60)" stroke-width="1px" opacity="0.25"></line></g></g></g><g><g><line x1="0" y1="4181.625" x2="281.125" y2="4181.625" fill="rgb(0, 0, 0)" stroke="rgb(153, 153, 153)" stroke-width="1.5px"></line></g></g><g><g><line x1="31.23611111111111" y1="0" x2="31.23611111111111" y2="177" fill="rgb(0, 0, 0)" stroke="rgb(153, 153, 153)" stroke-width="1.5px"></line></g></g><g><g><g><g><g><path stroke="rgb(0, 119, 187)" stroke-width="2px" d="M31.23611111111111,184.95387268066406L34.359722222222224,153.40297651290894L37.483333333333334,126.13676729007649L40.60694444444444,128.56760384054797L43.730555555555554,133.6665500770585L46.854166666666664,143.22943493016385L49.97777777777778,149.27690534434194L53.101388888888884,149.77053102426342L56.225,120.50730221702736L59.34861111111111,114.64212700258061L62.47222222222222,106.69886168067603L65.59583333333333,106.06353646068109L68.71944444444445,104.5172523770118L71.84305555555555,96.5754719104706L74.96666666666667,101.15587107684802L78.09027777777779,84.54721423666828L81.21388888888887,81.06345815779005L84.33749999999999,74.57298243366652L87.46111111111111,61.901775872807846L90.58472222222223,70.39842192037585L93.70833333333333,77.5689895053471L96.83194444444445,71.5889918428247L99.95555555555556,64.77558098318914L103.07916666666667,67.7456177900336L106.20277777777777,77.12839481656671L109.32638888888889,91.82169314909069L112.45,87.17979779013068L115.5736111111111,85.00896224088311L118.69722222222222,87.79062159454863L121.82083333333334,85.6387859331627L124.94444444444444,76.41919868169836L128.06805555555556,79.13192713975958L131.19166666666666,81.61963568121304L134.3152777777778,76.65692988714571L137.4388888888889,79.55977077515851L140.5625,68.10115241648539L143.6861111111111,70.31284218989734L146.80972222222223,74.54794855476186L149.93333333333334,62.174218171452054L153.05694444444444,65.28960399663521L156.18055555555557,57.508586763078625L159.30416666666667,70.08948205047332L162.42777777777775,67.41155360939322L165.55138888888888,73.97162775393056L168.67499999999998,72.38560497860998L171.79861111111111,60.59592826353037L174.92222222222222,43.863230938204424L178.04583333333332,34.37808794625454L181.16944444444445,49.50130116273209L184.29305555555555,65.87604696364058L187.41666666666666,68.39413480051138L190.5402777777778,69.0566644435414L193.6638888888889,56.82562006502873L196.7875,55.33828890913267L199.91111111111113,63.81376970168631L203.03472222222223,63.35349390719293L206.15833333333333,97.03793405184308L209.28194444444446,67.16634334736159L212.40555555555554,51.60726908214579L215.52916666666667,42.51179110626913L218.65277777777777,44.99608833563636L221.77638888888887,44.44458751066003L224.9,44.69733111967753L228.0236111111111,48.06131554192359L231.1472222222222,44.22841072408005L234.27083333333334,36.66844368176197L237.39444444444445,42.666145707348704L240.51805555555555,51.23830055307158L243.64166666666668,54.041210312311705L246.76527777777778,63.04132927576606L249.88888888888889,70.19233296585013L253.01250000000002,54.56975997848457L256.1361111111111,44.932887633818865L259.25972222222225,44.991796636688065L262.3833333333333,36.226836862628204L265.50694444444446,34.184655584373786L268.6305555555556,35.317420242714235L271.75416666666666,43.33597826867543" style="fill: none;" fill="none"></path></g><g><path stroke="rgb(255, 112, 67)" stroke-width="2px" d="M31.23611111111111,184.95387268066406L34.359722222222224,153.40297651290894L37.483333333333334,126.13676729007649L40.60694444444444,128.56760384054797L43.730555555555554,133.6665500770585L46.854166666666664,143.22943493016385L49.97777777777778,149.27690534434194L53.101388888888884,149.77053102426342L56.225,120.50730221702736L59.34861111111111,114.64212700258061L62.47222222222222,106.69886168067603L65.59583333333333,106.06353646068109L68.71944444444445,104.5172523770118L71.84305555555555,96.5754719104706L74.96666666666667,101.15587107684802L78.09027777777779,84.54721423666828L81.21388888888887,81.06345815779005L84.33749999999999,74.57298243366652L87.46111111111111,61.901775872807846L90.58472222222223,70.39842192037585L93.70833333333333,77.5689895053471L96.83194444444445,71.5889918428247L99.95555555555556,64.77558098318914L103.07916666666667,67.7456177900336L106.20277777777777,77.12839481656671L109.32638888888889,91.82169314909069L112.45,87.17979779013068L115.5736111111111,85.00896224088311L118.69722222222222,87.79062159454863L121.82083333333334,85.6387859331627L124.94444444444444,76.41919868169836L128.06805555555556,79.13192713975958L131.19166666666666,81.61963568121304L134.3152777777778,76.65692988714571L137.4388888888889,79.55977077515851L140.5625,68.10115241648539L143.6861111111111,70.31284218989734L146.80972222222223,74.54794855476186L149.93333333333334,62.174218171452054L153.05694444444444,65.28960399663521L156.18055555555557,57.508586763078625L159.30416666666667,70.08948205047332L162.42777777777775,67.41155360939322L165.55138888888888,73.97162775393056L168.67499999999998,72.38560497860998L171.79861111111111,60.59592826353037L174.92222222222222,43.863230938204424L178.04583333333332,34.37808794625454L181.16944444444445,49.50130116273209L184.29305555555555,65.87604696364058L187.41666666666666,68.39413480051138L190.5402777777778,69.0566644435414L193.6638888888889,56.82562006502873L196.7875,55.33828890913267L199.91111111111113,63.81376970168631L203.03472222222223,63.35349390719293L206.15833333333333,97.03793405184308L209.28194444444446,67.16634334736159L212.40555555555554,51.60726908214579L215.52916666666667,42.51179110626913L218.65277777777777,44.99608833563636L221.77638888888887,44.44458751066003L224.9,44.69733111967753L228.0236111111111,48.06131554192359L231.1472222222222,44.22841072408005L234.27083333333334,36.66844368176197L237.39444444444445,42.666145707348704L240.51805555555555,51.23830055307158L243.64166666666668,54.041210312311705L246.76527777777778,63.04132927576606L249.88888888888889,70.19233296585013L253.01250000000002,54.56975997848457L256.1361111111111,44.932887633818865L259.25972222222225,44.991796636688065L262.3833333333333,36.226836862628204L265.50694444444446,34.184655584373786L268.6305555555556,35.317420242714235L271.75416666666666,43.33597826867543" style="fill: none;" fill="none"></path></g></g></g></g><g opacity="0.2"><g><g><g><path stroke="rgb(0, 119, 187)" stroke-width="2px" d="M31.23611111111111,184.95387268066406L34.359722222222224,134.47243881225586L37.483333333333334,99.96120643615723L40.60694444444444,131.42626762390137L43.730555555555554,140.32373428344727L46.854166666666664,156.45834732055664L49.97777777777778,157.92488479614258L53.101388888888884,150.49024200439453L56.225,77.34972381591797L59.34861111111111,105.93302536010742L62.47222222222222,94.85600852966309L65.59583333333333,105.11400604248047L68.71944444444445,102.2028751373291L71.84305555555555,84.67835998535156L74.96666666666667,108.02108573913574L78.09027777777779,59.64594268798828L81.21388888888887,75.83929824829102L84.33749999999999,64.83891677856445L87.46111111111111,42.89689636230469L90.58472222222223,83.14261436462402L93.70833333333333,88.32444763183594L96.83194444444445,62.619192123413086L99.95555555555556,54.555599212646484L103.07916666666667,72.20063781738281L106.20277777777777,91.20249366760254L109.32638888888889,113.8615779876709L112.45,80.21696662902832L115.5736111111111,81.75271224975586L118.69722222222222,91.96310806274414L121.82083333333334,82.4110336303711L124.94444444444444,62.589820861816406L128.06805555555556,83.20101928710938L131.19166666666666,85.35119819641113L134.3152777777778,69.21287155151367L137.4388888888889,83.91403198242188L140.5625,50.913225173950195L143.6861111111111,73.6303768157959L146.80972222222223,80.90060806274414L149.93333333333334,43.61362266540527L153.05694444444444,69.96268272399902L156.18055555555557,45.83706092834473L159.30416666666667,88.96082496643066L162.42777777777775,63.39466094970703L165.55138888888888,83.81173896789551L168.67499999999998,70.00657081604004L171.79861111111111,42.91141319274902L174.92222222222222,18.764184951782227L178.04583333333332,20.150373458862305L181.16944444444445,72.18612098693848L184.29305555555555,90.43816566467285L187.41666666666666,72.17126655578613L190.5402777777778,70.05045890808105L193.6638888888889,38.47905349731445L196.7875,53.10729217529297L199.91111111111113,76.52699089050293L203.03472222222223,62.6630802154541L206.15833333333333,147.56459426879883L209.28194444444446,22.358957290649414L212.40555555555554,28.268657684326172L215.52916666666667,28.868574142456055L218.65277777777777,48.7225341796875L221.77638888888887,43.61733627319336L224.9,45.076446533203125L228.0236111111111,53.10729217529297L231.1472222222222,38.47905349731445L234.27083333333334,25.328493118286133L237.39444444444445,51.66269874572754L240.51805555555555,64.09653282165527L243.64166666666668,58.245574951171875L246.76527777777778,76.54150772094727L249.88888888888889,80.91883850097656L253.01250000000002,31.135900497436523L256.1361111111111,30.47757911682129L259.25972222222225,45.08016014099121L262.3833333333333,23.079397201538086L265.50694444444446,31.121383666992188L268.6305555555556,37.01656723022461L271.75416666666666,55.36381530761719" style="fill: none;" fill="none"></path></g><g><path stroke="rgb(255, 112, 67)" stroke-width="2px" d="M31.23611111111111,184.95387268066406L34.359722222222224,134.47243881225586L37.483333333333334,99.96120643615723L40.60694444444444,131.42626762390137L43.730555555555554,140.32373428344727L46.854166666666664,156.45834732055664L49.97777777777778,157.92488479614258L53.101388888888884,150.49024200439453L56.225,77.34972381591797L59.34861111111111,105.93302536010742L62.47222222222222,94.85600852966309L65.59583333333333,105.11400604248047L68.71944444444445,102.2028751373291L71.84305555555555,84.67835998535156L74.96666666666667,108.02108573913574L78.09027777777779,59.64594268798828L81.21388888888887,75.83929824829102L84.33749999999999,64.83891677856445L87.46111111111111,42.89689636230469L90.58472222222223,83.14261436462402L93.70833333333333,88.32444763183594L96.83194444444445,62.619192123413086L99.95555555555556,54.555599212646484L103.07916666666667,72.20063781738281L106.20277777777777,91.20249366760254L109.32638888888889,113.8615779876709L112.45,80.21696662902832L115.5736111111111,81.75271224975586L118.69722222222222,91.96310806274414L121.82083333333334,82.4110336303711L124.94444444444444,62.589820861816406L128.06805555555556,83.20101928710938L131.19166666666666,85.35119819641113L134.3152777777778,69.21287155151367L137.4388888888889,83.91403198242188L140.5625,50.913225173950195L143.6861111111111,73.6303768157959L146.80972222222223,80.90060806274414L149.93333333333334,43.61362266540527L153.05694444444444,69.96268272399902L156.18055555555557,45.83706092834473L159.30416666666667,88.96082496643066L162.42777777777775,63.39466094970703L165.55138888888888,83.81173896789551L168.67499999999998,70.00657081604004L171.79861111111111,42.91141319274902L174.92222222222222,18.764184951782227L178.04583333333332,20.150373458862305L181.16944444444445,72.18612098693848L184.29305555555555,90.43816566467285L187.41666666666666,72.17126655578613L190.5402777777778,70.05045890808105L193.6638888888889,38.47905349731445L196.7875,53.10729217529297L199.91111111111113,76.52699089050293L203.03472222222223,62.6630802154541L206.15833333333333,147.56459426879883L209.28194444444446,22.358957290649414L212.40555555555554,28.268657684326172L215.52916666666667,28.868574142456055L218.65277777777777,48.7225341796875L221.77638888888887,43.61733627319336L224.9,45.076446533203125L228.0236111111111,53.10729217529297L231.1472222222222,38.47905349731445L234.27083333333334,25.328493118286133L237.39444444444445,51.66269874572754L240.51805555555555,64.09653282165527L243.64166666666668,58.245574951171875L246.76527777777778,76.54150772094727L249.88888888888889,80.91883850097656L253.01250000000002,31.135900497436523L256.1361111111111,30.47757911682129L259.25972222222225,45.08016014099121L262.3833333333333,23.079397201538086L265.50694444444446,31.121383666992188L268.6305555555556,37.01656723022461L271.75416666666666,55.36381530761719" style="fill: none;" fill="none"></path></g></g></g></g></g></g><g transform="translate(48, 177)" clip-path="url(#clip_1)"><clipPath id="clip_1"><rect width="281" height="23"></rect></clipPath><g><g><line x1="0" y1="0" x2="0" y2="5" style="visibility: inherit;" fill="rgb(0, 0, 0)" stroke="rgb(204, 204, 204)" stroke-width="1px"></line><line x1="31.23611111111111" y1="0" x2="31.23611111111111" y2="5" style="visibility: inherit;" fill="rgb(0, 0, 0)" stroke="rgb(204, 204, 204)" stroke-width="1px"></line><line x1="62.47222222222222" y1="0" x2="62.47222222222222" y2="5" style="visibility: inherit;" fill="rgb(0, 0, 0)" stroke="rgb(204, 204, 204)" stroke-width="1px"></line><line x1="93.70833333333333" y1="0" x2="93.70833333333333" y2="5" style="visibility: inherit;" fill="rgb(0, 0, 0)" stroke="rgb(204, 204, 204)" stroke-width="1px"></line><line x1="124.94444444444444" y1="0" x2="124.94444444444444" y2="5" style="visibility: inherit;" fill="rgb(0, 0, 0)" stroke="rgb(204, 204, 204)" stroke-width="1px"></line><line x1="156.18055555555557" y1="0" x2="156.18055555555557" y2="5" style="visibility: inherit;" fill="rgb(0, 0, 0)" stroke="rgb(204, 204, 204)" stroke-width="1px"></line><line x1="187.41666666666666" y1="0" x2="187.41666666666666" y2="5" style="visibility: inherit;" fill="rgb(0, 0, 0)" stroke="rgb(204, 204, 204)" stroke-width="1px"></line><line x1="218.65277777777777" y1="0" x2="218.65277777777777" y2="5" style="visibility: inherit;" fill="rgb(0, 0, 0)" stroke="rgb(204, 204, 204)" stroke-width="1px"></line><line x1="249.88888888888889" y1="0" x2="249.88888888888889" y2="5" style="visibility: inherit;" fill="rgb(0, 0, 0)" stroke="rgb(204, 204, 204)" stroke-width="1px"></line><line x1="281.125" y1="0" x2="281.125" y2="5" style="visibility: inherit;" fill="rgb(0, 0, 0)" stroke="rgb(204, 204, 204)" stroke-width="1px"></line></g><g transform="translate(0, 8)"><text x="0" y="0" dx="0em" dy="0.95em" style="text-anchor: middle; visibility: hidden; font-family: &quot;Helvetica Neue&quot;, sans-serif; font-size: 12px; font-weight: 200;" fill="rgb(50, 49, 63)" stroke="none" stroke-width="1px">-5k</text><text x="31.23611111111111" y="0" dx="0em" dy="0.95em" style="text-anchor: middle; visibility: inherit; font-family: &quot;Helvetica Neue&quot;, sans-serif; font-size: 12px; font-weight: 200;" fill="rgb(50, 49, 63)" stroke="none" stroke-width="1px">0</text><text x="62.47222222222222" y="0" dx="0em" dy="0.95em" style="text-anchor: middle; visibility: inherit; font-family: &quot;Helvetica Neue&quot;, sans-serif; font-size: 12px; font-weight: 200;" fill="rgb(50, 49, 63)" stroke="none" stroke-width="1px">5k</text><text x="93.70833333333333" y="0" dx="0em" dy="0.95em" style="text-anchor: middle; visibility: inherit; font-family: &quot;Helvetica Neue&quot;, sans-serif; font-size: 12px; font-weight: 200;" fill="rgb(50, 49, 63)" stroke="none" stroke-width="1px">10k</text><text x="124.94444444444444" y="0" dx="0em" dy="0.95em" style="text-anchor: middle; visibility: inherit; font-family: &quot;Helvetica Neue&quot;, sans-serif; font-size: 12px; font-weight: 200;" fill="rgb(50, 49, 63)" stroke="none" stroke-width="1px">15k</text><text x="156.18055555555557" y="0" dx="0em" dy="0.95em" style="text-anchor: middle; visibility: inherit; font-family: &quot;Helvetica Neue&quot;, sans-serif; font-size: 12px; font-weight: 200;" fill="rgb(50, 49, 63)" stroke="none" stroke-width="1px">20k</text><text x="187.41666666666666" y="0" dx="0em" dy="0.95em" style="text-anchor: middle; visibility: inherit; font-family: &quot;Helvetica Neue&quot;, sans-serif; font-size: 12px; font-weight: 200;" fill="rgb(50, 49, 63)" stroke="none" stroke-width="1px">25k</text><text x="218.65277777777777" y="0" dx="0em" dy="0.95em" style="text-anchor: middle; visibility: inherit; font-family: &quot;Helvetica Neue&quot;, sans-serif; font-size: 12px; font-weight: 200;" fill="rgb(50, 49, 63)" stroke="none" stroke-width="1px">30k</text><text x="249.88888888888889" y="0" dx="0em" dy="0.95em" style="text-anchor: middle; visibility: inherit; font-family: &quot;Helvetica Neue&quot;, sans-serif; font-size: 12px; font-weight: 200;" fill="rgb(50, 49, 63)" stroke="none" stroke-width="1px">35k</text><text x="281.125" y="0" dx="0em" dy="0.95em" style="text-anchor: middle; visibility: hidden; font-family: &quot;Helvetica Neue&quot;, sans-serif; font-size: 12px; font-weight: 200;" fill="rgb(50, 49, 63)" stroke="none" stroke-width="1px">40k</text></g><line x1="0" y1="0" x2="281.125" y2="0" fill="rgb(0, 0, 0)" stroke="rgb(204, 204, 204)" stroke-width="1px"></line></g></g></g></g></svg>